<?xml version="1.0" encoding="UTF-8" standalone="no"?>
<!DOCTYPE svg PUBLIC "-//W3C//DTD SVG 1.1//EN" "http://www.w3.org/Graphics/SVG/1.1/DTD/svg11.dtd">
<svg width="100%" height="100%" viewBox="0 0 264 264" version="1.1" xmlns="http://www.w3.org/2000/svg" xmlns:xlink="http://www.w3.org/1999/xlink" xml:space="preserve" xmlns:serif="http://www.serif.com/" style="fill-rule:evenodd;clip-rule:evenodd;stroke-linejoin:round;stroke-miterlimit:2;">
    <g transform="matrix(1,0,0,1,-779,-816)">
        <g id="cluster_nebular" transform="matrix(1,0,0,1,-33.2339,340.113)">
            <rect x="812.258" y="476.123" width="263.659" height="263.659" style="fill:none;"/>
            <g transform="matrix(-3.07389,-3.07389,-1.91822,1.91822,4551.07,511.347)">
                <path d="M580.22,944.977C578.479,944.977 577.065,947.242 577.065,950.032C577.065,952.821 578.479,955.086 580.22,955.086L587.782,955.086C589.523,955.086 590.936,952.821 590.936,950.032C590.936,947.242 589.523,944.977 587.782,944.977L580.22,944.977ZM564.209,959.931C562.468,959.931 561.055,962.196 561.055,964.986C561.055,967.776 562.468,970.041 564.209,970.041L578.948,970.041C580.688,970.041 582.102,967.776 582.102,964.986C582.102,962.196 580.688,959.931 578.948,959.931L564.209,959.931ZM589.033,959.931C587.292,959.931 585.878,962.196 585.878,964.986C585.878,967.776 587.292,970.041 589.033,970.041L598.084,970.041C599.825,970.041 601.239,967.776 601.239,964.986C601.239,962.196 599.825,959.931 598.084,959.931L589.033,959.931ZM576.614,975.002C574.873,975.002 573.46,977.267 573.46,980.056C573.46,982.846 574.873,985.111 576.614,985.111L590.832,985.111C592.573,985.111 593.986,982.846 593.986,980.056C593.986,977.267 592.573,975.002 590.832,975.002L576.614,975.002ZM568.397,976.623C567.239,974.766 565.21,974.676 563.995,976.623C562.78,978.57 562.78,981.731 563.995,983.678C565.21,985.625 567.182,985.625 568.397,983.678C569.612,981.731 569.612,978.57 568.397,976.623ZM572.22,946.51C571.061,944.653 569.032,944.563 567.817,946.51C566.602,948.457 566.602,951.618 567.817,953.565C569.032,955.512 571.005,955.512 572.22,953.565C573.435,951.618 573.435,948.457 572.22,946.51ZM556.424,958.065C556.684,955.303 555.496,952.722 553.773,952.305C552.049,951.888 550.439,953.791 550.178,956.553C549.888,959.634 549.733,962.861 549.733,966.183C549.733,969.506 549.888,972.732 550.178,975.813C550.439,978.575 552.049,980.478 553.773,980.061C555.496,979.644 556.684,977.063 556.424,974.301C556.179,971.704 556.049,968.984 556.049,966.183C556.049,963.382 556.179,960.662 556.424,958.065ZM559.888,989.998C558.938,987.655 556.981,986.988 555.519,988.509C554.057,990.031 553.641,993.167 554.59,995.51C557.585,1002.9 561.69,1007.15 566.058,1007.3C567.801,1007.36 569.246,1005.14 569.283,1002.35C569.32,999.554 567.936,997.238 566.193,997.179C563.713,997.094 561.588,994.194 559.888,989.998ZM566.193,935.187C567.936,935.128 569.32,932.812 569.283,930.02C569.246,927.227 567.801,925.008 566.058,925.068C561.69,925.217 557.585,929.465 554.59,936.856C553.641,939.199 554.057,942.335 555.519,943.857C556.981,945.378 558.938,944.711 559.888,942.368C561.588,938.172 563.713,935.272 566.193,935.187Z"/>
            </g>
        </g>
    </g>
</svg>
