<?xml version="1.0" encoding="UTF-8" standalone="no"?>
<!DOCTYPE svg PUBLIC "-//W3C//DTD SVG 1.1//EN" "http://www.w3.org/Graphics/SVG/1.1/DTD/svg11.dtd">
<svg width="100%" height="100%" viewBox="0 0 264 264" version="1.1" xmlns="http://www.w3.org/2000/svg" xmlns:xlink="http://www.w3.org/1999/xlink" xml:space="preserve" xmlns:serif="http://www.serif.com/" style="fill-rule:evenodd;clip-rule:evenodd;stroke-linejoin:round;stroke-miterlimit:2;">
    <g transform="matrix(1,0,0,1,0,-816)">
        <g id="galaxy" transform="matrix(1,0,0,1,-812.258,340.113)">
            <rect x="812.258" y="476.123" width="263.659" height="263.659" style="fill:none;"/>
            <g transform="matrix(-9.20642,-8.66251,-4.86975,5.17552,8513.29,-95.4532)">
                <path d="M405.725,800.89C405.475,800.877 405.367,801.273 405.327,801.4C405.193,801.821 405.275,801.571 404.795,803.089C404.669,803.488 404.002,805.596 402.5,807.098C401.288,808.311 400.127,808.263 399.943,808.261C398.292,808.24 398.294,808.244 396.645,808.232C394.713,808.219 394.059,803.588 395.733,801.903C395.797,801.839 396.166,801.468 396.621,801.466C398.963,801.457 398.959,801.48 399.064,801.465C399.53,801.396 399.657,801.17 399.876,800.871C400.145,800.502 400.417,799.207 399.828,798.158C399.632,797.811 399.339,797.632 399.064,797.589C398.764,797.542 396.854,797.589 396.662,797.589C393.061,797.596 391.214,805.436 393.798,809.918C394.642,811.382 395.72,811.971 396.651,811.94C398.433,811.879 400.25,811.863 401.02,811.62C403.912,810.709 405.131,807.135 405.347,806.503C406.089,804.326 406.185,802.84 406.204,802.292C406.218,801.878 406.231,801.611 406.149,801.36C406.014,800.948 405.914,800.9 405.725,800.89ZM390.032,803.451C390.281,803.463 390.39,803.067 390.43,802.941C390.564,802.52 390.482,802.77 390.962,801.252C391.088,800.853 391.755,798.744 393.257,797.242C394.469,796.03 395.63,796.077 395.814,796.08C397.465,796.101 397.462,796.097 399.112,796.108C401.044,796.122 401.698,800.753 400.024,802.437C399.96,802.502 399.591,802.873 399.135,802.875C396.794,802.883 396.797,802.86 396.693,802.876C396.226,802.944 396.1,803.17 395.881,803.47C395.612,803.839 395.339,805.133 395.929,806.183C396.124,806.53 396.418,806.709 396.693,806.752C396.993,806.799 398.903,806.752 399.095,806.752C402.696,806.745 404.543,798.905 401.959,794.423C401.115,792.958 400.037,792.369 399.106,792.401C397.323,792.462 395.507,792.477 394.736,792.72C391.845,793.632 390.626,797.205 390.41,797.837C389.667,800.015 389.572,801.5 389.553,802.049C389.539,802.463 389.526,802.73 389.608,802.981C389.742,803.393 389.843,803.441 390.032,803.451Z"/>
            </g>
        </g>
    </g>
</svg>
