<?xml version="1.0" encoding="UTF-8" standalone="no"?>
<!DOCTYPE svg PUBLIC "-//W3C//DTD SVG 1.1//EN" "http://www.w3.org/Graphics/SVG/1.1/DTD/svg11.dtd">
<svg width="100%" height="100%" viewBox="0 0 264 264" version="1.1" xmlns="http://www.w3.org/2000/svg" xmlns:xlink="http://www.w3.org/1999/xlink" xml:space="preserve" xmlns:serif="http://www.serif.com/" style="fill-rule:evenodd;clip-rule:evenodd;stroke-linejoin:round;stroke-miterlimit:2;">
    <g transform="matrix(1,0,0,1,-1504,-816)">
        <g id="globular_cluster" transform="matrix(1,0,0,1,692.011,340.113)">
            <rect x="812.258" y="476.123" width="263.659" height="263.659" style="fill:none;"/>
            <g transform="matrix(3.79142,-3.79142,2.25921,2.25921,-2956.71,215.848)">
                <path d="M462.064,926.493C468.829,926.493 474.807,929.921 478.525,934.993C481.426,938.949 483.027,943.931 483.027,949.208C483.027,954.485 481.426,959.466 478.525,963.423C474.807,968.494 468.829,971.922 462.064,971.922C455.298,971.922 449.321,968.494 445.602,963.423C442.701,959.466 441.1,954.485 441.1,949.208C441.1,943.931 442.701,938.949 445.602,934.993C449.321,929.921 455.298,926.493 462.064,926.493ZM462.064,935.156C456.654,935.156 451.831,937.659 448.857,941.715C447.295,943.845 446.261,946.367 446.261,949.208C446.261,952.049 447.295,954.57 448.857,956.7C451.831,960.756 456.654,963.259 462.064,963.259C467.474,963.259 472.296,960.756 475.27,956.7C476.832,954.57 477.866,952.049 477.866,949.208C477.866,946.367 476.832,943.845 475.27,941.715C472.296,937.659 467.473,935.156 462.064,935.156Z"/>
            </g>
        </g>
    </g>
</svg>
