<?xml version="1.0" encoding="UTF-8" standalone="no"?>
<!DOCTYPE svg PUBLIC "-//W3C//DTD SVG 1.1//EN" "http://www.w3.org/Graphics/SVG/1.1/DTD/svg11.dtd">
<svg width="100%" height="100%" viewBox="0 0 264 264" version="1.1" xmlns="http://www.w3.org/2000/svg" xmlns:xlink="http://www.w3.org/1999/xlink" xml:space="preserve" xmlns:serif="http://www.serif.com/" style="fill-rule:evenodd;clip-rule:evenodd;stroke-linejoin:round;stroke-miterlimit:2;">
    <g transform="matrix(1,0,0,1,-1181,-816)">
        <g id="open_cluster" transform="matrix(1,0,0,1,369.013,340.113)">
            <rect x="812.258" y="476.123" width="263.659" height="263.659" style="fill:none;"/>
            <g transform="matrix(-3.76259,3.76259,-2.24204,-2.24204,4808.27,1001.22)">
                <path d="M457.925,935.668C456.517,936.025 455.201,934.396 454.988,932.033C454.776,929.67 455.746,927.462 457.154,927.105C458.725,926.707 460.37,926.495 462.064,926.495C463.757,926.495 465.402,926.707 466.973,927.105C468.381,927.462 469.352,929.67 469.139,932.033C468.926,934.396 467.61,936.025 466.202,935.668C464.878,935.332 463.492,935.154 462.064,935.154C460.636,935.154 459.249,935.332 457.925,935.668ZM474.205,940.417C473.01,939.115 472.67,936.432 473.446,934.427C474.221,932.423 475.821,931.853 477.015,933.154C480.783,937.261 482.948,942.888 483.025,948.877C483.055,951.266 481.924,953.247 480.5,953.298C479.077,953.349 477.896,951.451 477.866,949.062C477.822,945.661 476.344,942.748 474.205,940.417ZM474.003,958.214C475.21,956.947 476.803,957.564 477.558,959.59C478.313,961.617 477.946,964.29 476.738,965.557C474.194,968.227 470.942,970.239 467.279,971.23C465.873,971.61 464.548,970.003 464.321,967.644C464.094,965.285 465.052,963.061 466.458,962.681C469.376,961.891 471.976,960.34 474.003,958.214ZM457.67,962.681C459.075,963.061 460.033,965.285 459.806,967.644C459.58,970.003 458.254,971.61 456.849,971.23C453.185,970.239 449.933,968.227 447.389,965.557C446.182,964.29 445.814,961.617 446.569,959.59C447.324,957.564 448.917,956.947 450.125,958.214C452.151,960.34 454.752,961.891 457.67,962.681ZM446.262,949.062C446.231,951.451 445.051,953.349 443.627,953.298C442.203,953.247 441.072,951.266 441.103,948.877C441.179,942.888 443.344,937.261 447.112,933.154C448.307,931.853 449.906,932.423 450.681,934.427C451.457,936.432 451.117,939.115 449.923,940.417C447.783,942.748 446.305,945.661 446.262,949.062Z"/>
            </g>
        </g>
    </g>
</svg>
