<?xml version="1.0" encoding="UTF-8" standalone="no"?>
<!-- Created with Inkscape (http://www.inkscape.org/) -->

<svg
   width="210mm"
   height="297mm"
   viewBox="0 0 793.70081 1122.5197"
   version="1.1"
   id="svg1"
   xml:space="preserve"
   inkscape:version="1.4 (86a8ad7, 2024-10-11)"
   sodipodi:docname="svg_path_export.svg"
   xmlns:inkscape="http://www.inkscape.org/namespaces/inkscape"
   xmlns:sodipodi="http://sodipodi.sourceforge.net/DTD/sodipodi-0.dtd"
   xmlns="http://www.w3.org/2000/svg"
   xmlns:svg="http://www.w3.org/2000/svg"><sodipodi:namedview
     id="namedview1"
     pagecolor="#ffffff"
     bordercolor="#000000"
     borderopacity="0.25"
     inkscape:showpageshadow="2"
     inkscape:pageopacity="0.0"
     inkscape:pagecheckerboard="0"
     inkscape:deskcolor="#d1d1d1"
     inkscape:document-units="mm"
     inkscape:zoom="1.1433196"
     inkscape:cx="128.57297"
     inkscape:cy="272.45224"
     inkscape:window-width="3840"
     inkscape:window-height="2054"
     inkscape:window-x="-11"
     inkscape:window-y="-11"
     inkscape:window-maximized="1"
     inkscape:current-layer="svg1" /><defs
     id="defs1">
                
            
        
    
                
            
        
    
                
            
        
    
                
            
        
    
                
            </defs><path
     d="m 190.42309,235.23685 c 5.35165,5.35164 5.35336,14.04289 0.002,19.39472 -5.34991,5.34992 -14.04115,5.3482 -19.39279,-0.003 l -23.24476,-23.24476 c -5.35164,-5.35164 -5.35028,-14.03981 -3.6e-4,-19.38973 5.35183,-5.35183 14.04,-5.35319 19.39165,-0.002 z m 20.53099,77.90111 c 5.35165,5.35164 5.35028,14.03982 -0.002,19.39165 -5.35183,5.35183 -14.04001,5.3532 -19.39165,0.002 l -45.30605,-45.30606 c -5.34857,-5.34857 -5.35029,-14.03982 0.002,-19.39165 5.35183,-5.35184 14.04308,-5.35012 19.39165,-0.002 z m -76.30623,-76.30625 c 5.35164,5.35165 5.35335,14.0429 0.002,19.39473 -5.35183,5.35183 -14.04308,5.35012 -19.39473,-0.002 L 87.433349,228.40266 c -5.35165,-5.35164 -5.35336,-14.04289 -0.002,-19.39472 5.351826,-5.35184 14.043081,-5.35013 19.394721,0.002 z m 9.26515,67.08414 c 5.35164,5.35164 5.35028,14.03982 3.6e-4,19.38973 -5.35183,5.35183 -14.04001,5.3532 -19.39165,0.002 L 80.817139,279.60257 c -5.35164,-5.35165 -5.35028,-14.03982 0.002,-19.39166 5.34992,-5.34991 14.038086,-5.35127 19.389741,3.7e-4 z m 22.14871,28.36759 c 7.1217,-0.003 13.53126,6.06171 13.53126,13.53126 0,7.46955 -6.06348,13.53304 -13.53303,13.53304 -7.46955,0 -13.53127,-6.06171 -13.53127,-13.53126 0,-7.46955 6.06349,-13.53305 13.53304,-13.53304 z m 46.01187,-69.51484 c 7.12478,5e-4 13.53434,6.06478 13.53434,13.53433 0,7.46955 -6.06349,13.53305 -13.53304,13.53305 -7.46955,-1e-5 -13.53434,-6.06479 -13.53434,-13.53434 0,-7.46955 6.06349,-13.53305 13.53304,-13.53304 z m 26.39015,70.72019 c 4.4989,-6.09733 13.1016,-7.39647 19.1978,-2.90006 6.0993,4.49949 7.3979,13.09882 2.9021,19.19923 -5.0187,6.80147 -10.7323,13.46802 -17.1046,19.84034 -6.3743,6.37425 -13.0389,12.08597 -19.84037,17.10458 -6.1004,4.49584 -14.69974,3.19725 -19.19923,-2.90204 -4.49641,-6.09621 -3.19727,-14.69891 2.90007,-19.19783 5.73472,-4.22851 11.35188,-9.04646 16.72482,-14.4194 5.37293,-5.37293 10.19088,-10.99009 14.41941,-16.72482 z m -71.90248,50.60657 c 7.41459,-1.57419 14.70963,3.16196 16.28605,10.5736 1.57449,7.41355 -3.16231,14.70784 -10.57381,16.28511 -23.38194,4.96934 -44.1527,0.50346 -57.86718,-12.63557 -5.47289,-5.2427 -5.65621,-13.94292 -0.41811,-19.40848 5.24961,-5.47708 13.94647,-5.66541 19.41744,-0.4208 7.78629,7.4602 19.88115,8.42938 33.15561,5.60614 z m 85.75868,-124.52043 c -5.2446,-5.47097 -5.0563,-14.16783 0.4131,-19.40977 5.4713,-5.24385 14.1696,-5.05861 19.4123,0.41427 13.141,13.71257 17.6107,34.47949 12.6394,57.86335 -1.5772,7.41151 -8.8715,12.14831 -16.2851,10.57382 -7.4116,-1.57642 -12.1478,-8.87147 -10.5736,-16.28606 2.8233,-13.27446 1.8541,-25.36932 -5.6061,-33.15561 z"
     id="path1-0"
     style="stroke-width:3.43406" /><path
     d="m 425.80441,381.581 c 8.70589,-9.69664 18.65747,-4.98138 22.117,0.0194 5.05713,4.94726 2.76553,15.54818 -5.95501,23.86555 -9.74151,11.52465 -21.06641,22.74068 -33.39867,30.77441 -12.07567,4.17902 -20.19707,-3.88316 -19.32974,-14.51686 0.90904,-8.50548 12.14407,-12.86255 18.07243,-19.49191 6.80913,-6.32118 13.08293,-13.30803 18.49399,-20.65057 z M 353.902,432.18852 c 11.03009,-1.48519 19.14303,6.62994 15.58645,18.5665 -4.69067,10.04416 -15.01138,8.9506 -21.67859,10.02003 -20.64377,1.4628 -38.42141,-4.54133 -48.57978,-17.63775 -4.09039,-4.15059 -1.36247,-18.03849 9.10811,-20.05949 11.46428,-2.10309 14.25617,8.48519 23.82208,9.56225 6.36068,1.56112 13.8819,1.22416 21.74173,-0.45154 z m -39.14154,-40.66163 c -3.42967,12.55028 -18.8889,12.62535 -22.46424,7.20514 -6.58552,-4.4738 -4.89902,-15.138 -0.82905,-25.23915 4.67236,-12.80999 11.41865,-26.38153 21.25656,-38.52618 10.24064,-7.64566 18.58827,-1.84997 21.65561,4.16205 4.53661,5.72777 -1.78022,15.46403 -7.59862,23.6311 -5.73564,9.5854 -9.87423,19.44343 -12.02026,28.76704 z m 51.43919,-71.46957 c -10.74026,6.27236 -18.46678,0.0717 -21.05359,-6.75883 -4.09439,-6.74852 4.50312,-17.56771 14.04522,-21.59547 14.3826,-8.70186 29.90039,-15.86572 43.35805,-17.09157 8.69158,1.11268 15.65598,8.5337 11.25398,19.81989 -5.84749,9.73039 -15.59755,7.32505 -23.43366,11.8933 -8.12338,3.39083 -16.3328,8.06993 -24.17,13.73268 z m 73.45796,-12.38929 c -4.41308,-3.63046 -7.0098,-15.40647 3.79136,-21.78951 12.20096,-4.82469 17.56364,4.01711 22.03838,10.46631 8.32859,13.3788 11.43657,31.82476 5.78924,52.83523 -7.0322,12.42152 -19.95178,8.51364 -23.32353,3.04432 -6.12594,-5.6654 -0.0883,-18.16135 -1.30416,-26.78547 -0.4043,-7.19419 -2.75047,-13.39145 -6.99129,-17.77088 z"
     id="path1" /><path
     d="m 345.22172,109.01951 c 2.36491,2.09835 1.43078,5.08341 1.18058,6.0872 -0.8165,3.33967 -0.35399,1.33546 -3.32719,13.34991 -0.78302,3.1565 -4.90777,19.84439 1.6059,40.62912 5.25118,16.77686 16.17358,26.58561 17.8773,28.16916 15.30207,14.19312 15.26417,14.1965 30.504,28.41887 17.85011,16.66869 46.42292,-1.63386 39.2169,-24.85566 -0.27755,-0.88563 -1.86804,-6.00221 -6.04722,-9.95401 -21.51761,-20.33417 -21.59279,-20.18049 -22.48641,-21.16768 -3.95418,-4.39384 -4.02284,-6.66365 -4.58299,-10.10822 -0.67959,-4.23998 3.12259,-13.29848 13.65354,-13.62539 3.49427,-0.098 7.06343,1.51365 9.8046,3.67329 2.9908,2.3555 20.34618,19.14415 22.11382,20.80735 33.1182,31.22993 11.94365,87.80566 -33.67196,88.61841 -14.89954,0.26581 -27.69234,-6.024 -36.11255,-14.24924 -16.10879,-15.75229 -32.75894,-31.57488 -38.66453,-39.50267 -22.18863,-29.76688 -16.00677,-58.82378 -14.91767,-63.96581 3.77028,-17.69469 10.12291,-26.21712 12.61661,-29.21789 1.88719,-2.26394 3.06773,-3.75842 5.04496,-4.34715 3.24921,-0.96287 4.4036,-0.34505 6.19231,1.24041 z m 132.00493,149.19528 c -2.3508,-2.09486 -1.4259,-5.08858 -1.1806,-6.08719 0.8165,-3.33968 0.354,-1.33547 3.3272,-13.34991 0.783,-3.15651 4.9126,-19.84958 -1.601,-40.6343 -5.2561,-16.77169 -16.17362,-26.58562 -17.88221,-28.16399 -15.30206,-14.19312 -15.25496,-14.18783 -30.49912,-28.42404 -17.85498,-16.66352 -46.42779,1.63903 -39.2169,24.85565 0.27267,0.89081 1.86316,6.0074 6.05155,9.96785 21.51327,20.32034 21.59766,20.17532 22.47721,21.15903 3.96826,4.39732 4.0277,6.65847 4.58298,10.10821 0.67959,4.23999 -3.10851,13.30197 -13.65354,13.62539 -3.48505,0.10671 -7.06343,-1.51365 -9.80459,-3.67329 -2.99081,-2.3555 -20.34619,-19.14415 -22.11382,-20.80735 -33.11823,-31.22992 -11.94365,-87.80566 33.67196,-88.61841 14.9044,-0.27098 27.6972,6.01882 36.11255,14.24924 16.11799,15.76096 32.76383,31.56971 38.67863,39.50616 22.1745,29.76339 15.9975,58.81512 14.9084,63.95715 -3.7659,17.70853 -10.1229,26.21711 -12.6214,29.22306 -1.8872,2.26394 -3.0678,3.75842 -5.045,4.34715 -3.24,0.97154 -4.4036,0.34505 -6.1923,-1.24041 z"
     id="path1-8"
     style="stroke-width:9.47799" /><path
     d="m 581.31017,203.75455 c 25.64896,-25.64896 56.05864,-40.56949 81.61385,-43.20728 19.93635,-2.06147 37.26185,3.12385 49.18365,15.0457 11.9219,11.92185 17.1049,29.24504 15.0457,49.18365 -2.64,25.55295 -17.5606,55.96263 -43.20955,81.61159 -25.65275,25.65275 -56.05863,40.56949 -81.61538,43.21333 -19.9386,2.05922 -37.26179,-3.12385 -49.18364,-15.0457 -11.92185,-11.92185 -17.10717,-29.2473 -15.0457,-49.18364 2.64158,-25.559 17.55832,-55.96489 43.21107,-81.61765 z m 19.57154,19.57155 c -20.51158,20.51158 -33.1428,44.4524 -35.25513,64.89144 -1.11008,10.73431 0.66732,20.35237 7.08574,26.77079 6.41841,6.41841 16.03421,8.19355 26.76852,7.08347 20.43904,-2.11233 44.37986,-14.74354 64.89145,-35.25513 20.51158,-20.51158 33.13908,-44.44861 35.25138,-64.88765 1.1101,-10.73432 -0.6651,-20.35012 -7.0835,-26.76853 -6.4184,-6.41842 -16.0365,-8.19582 -26.77081,-7.08574 -20.43904,2.11233 -44.37986,14.74355 -64.88765,35.25135 z"
     id="path1-1"
     style="stroke-width:4.13899" /><path
     d="m 182.25726,54.199502 c 5.35165,5.35164 5.35336,14.04289 0.002,19.39472 -5.34991,5.34992 -14.04116,5.3482 -19.3928,-0.003 L 139.6217,50.346462 c -5.35164,-5.35164 -5.35028,-14.03981 -3.6e-4,-19.38973 5.35183,-5.35183 14.04,-5.35319 19.39165,-0.002 z m 20.53104,77.901108 c 5.3516,5.35164 5.3502,14.03982 0,19.39165 -5.35183,5.35183 -14.04001,5.3532 -19.39165,0.002 L 138.09059,106.1882 c -5.34857,-5.34857 -5.35029,-14.039818 0.002,-19.391648 5.35183,-5.35184 14.04308,-5.35012 19.39165,-0.002 z M 126.48201,55.794362 c 5.35164,5.35165 5.35335,14.0429 0.002,19.39473 -5.35183,5.35183 -14.04308,5.35012 -19.39473,-0.002 L 79.267502,47.365312 c -5.35165,-5.35164 -5.35336,-14.04289 -0.002,-19.39472 5.35183,-5.35184 14.043083,-5.35013 19.394723,0.002 z m 9.26515,67.084138 c 5.35164,5.35164 5.35028,14.03982 3.6e-4,19.38973 -5.35183,5.35183 -14.04001,5.3532 -19.39165,0.002 L 72.651292,98.565222 c -5.35164,-5.35165 -5.35028,-14.03982 0.002,-19.39166 5.34992,-5.34991 14.03809,-5.35127 19.38974,3.7e-4 z m 22.14871,28.36759 c 7.1217,-0.003 13.53127,6.06171 13.53127,13.53126 0,7.46955 -6.06349,13.53304 -13.53304,13.53304 -7.46955,0 -13.53127,-6.06171 -13.53127,-13.53126 0,-7.46955 6.06349,-13.53305 13.53304,-13.53304 z M 203.9078,81.731252 c 7.1247,5e-4 13.5343,6.06478 13.5343,13.53433 0,7.469548 -6.0635,13.533048 -13.5331,13.533048 -7.4695,-1e-5 -13.53429,-6.06479 -13.53429,-13.534338 0,-7.46955 6.06349,-13.53305 13.53309,-13.53304 z"
     id="path1-5"
     style="stroke-width:3.43406" /></svg>
