<?xml version="1.0" encoding="UTF-8" standalone="no"?>
<!DOCTYPE svg PUBLIC "-//W3C//DTD SVG 1.1//EN" "http://www.w3.org/Graphics/SVG/1.1/DTD/svg11.dtd">
<svg width="100%" height="100%" viewBox="0 0 265 264" version="1.1" xmlns="http://www.w3.org/2000/svg" xmlns:xlink="http://www.w3.org/1999/xlink" xml:space="preserve" xmlns:serif="http://www.serif.com/" style="fill-rule:evenodd;clip-rule:evenodd;stroke-linejoin:round;stroke-miterlimit:2;">
    <g transform="matrix(1,0,0,1,-989,0)">
        <g id="s4" transform="matrix(1,0,0,1,177.358,-476.123)">
            <rect x="812.258" y="476.123" width="263.659" height="263.659" style="fill:none;"/>
            <g transform="matrix(0.712973,0,0,0.712973,568.629,465.91)">
                <path d="M526.608,136.566L540.572,168.737C542.044,172.129 544.398,175.064 547.39,177.238C550.381,179.411 553.9,180.743 557.581,181.095L592.493,184.433L566.211,207.655C563.44,210.103 561.376,213.249 560.233,216.766C559.09,220.282 558.911,224.041 559.714,227.65L567.327,261.885L537.121,244.065C533.936,242.186 530.306,241.195 526.608,241.195C522.911,241.195 519.281,242.186 516.096,244.065L485.89,261.885L493.503,227.65C494.306,224.041 494.126,220.282 492.984,216.766C491.841,213.249 489.777,210.103 487.006,207.655L460.724,184.433L495.636,181.095C499.317,180.743 502.836,179.411 505.827,177.238C508.819,175.064 511.173,172.129 512.645,168.737L526.608,136.566Z"/>
            </g>
        </g>
    </g>
</svg>
