<?xml version="1.0" encoding="UTF-8" standalone="no"?>
<!DOCTYPE svg PUBLIC "-//W3C//DTD SVG 1.1//EN" "http://www.w3.org/Graphics/SVG/1.1/DTD/svg11.dtd">
<svg width="100%" height="100%" viewBox="0 0 265 264" version="1.1" xmlns="http://www.w3.org/2000/svg" xmlns:xlink="http://www.w3.org/1999/xlink" xml:space="preserve" xmlns:serif="http://www.serif.com/" style="fill-rule:evenodd;clip-rule:evenodd;stroke-linejoin:round;stroke-miterlimit:2;">
    <g transform="matrix(1,0,0,1,-1312,0)">
        <g id="s5" transform="matrix(1,0,0,1,500.664,-476.123)">
            <rect x="812.258" y="476.123" width="263.659" height="263.659" style="fill:none;"/>
            <g transform="matrix(1.12109,0,0,1.12109,353.713,377.187)">
                <path d="M526.608,136.566L531.27,162.489C532.473,169.18 536.563,175.001 542.451,178.4C548.339,181.799 555.425,182.431 561.821,180.128L586.602,171.203L566.483,188.201C561.29,192.589 558.294,199.042 558.294,205.84C558.294,212.639 561.29,219.092 566.483,223.479L586.602,240.478L561.821,231.553C555.425,229.249 548.339,229.881 542.451,233.281C536.563,236.68 532.473,242.501 531.27,249.192L526.608,275.115L521.947,249.192C520.744,242.501 516.653,236.68 510.766,233.281C504.878,229.881 497.792,229.249 491.396,231.553L466.615,240.478L486.734,223.479C491.927,219.092 494.923,212.639 494.923,205.84C494.923,199.042 491.927,192.589 486.734,188.201L466.615,171.203L491.396,180.128C497.792,182.431 504.878,181.799 510.766,178.4C516.653,175.001 520.744,169.18 521.947,162.489L526.608,136.566Z"/>
            </g>
        </g>
    </g>
</svg>
