<?xml version="1.0" encoding="UTF-8" standalone="no"?>
<!DOCTYPE svg PUBLIC "-//W3C//DTD SVG 1.1//EN" "http://www.w3.org/Graphics/SVG/1.1/DTD/svg11.dtd">
<svg width="100%" height="100%" viewBox="0 0 265 264" version="1.1" xmlns="http://www.w3.org/2000/svg" xmlns:xlink="http://www.w3.org/1999/xlink" xml:space="preserve" xmlns:serif="http://www.serif.com/" style="fill-rule:evenodd;clip-rule:evenodd;stroke-linejoin:round;stroke-miterlimit:2;">
    <g transform="matrix(1,0,0,1,-1606,-1)">
        <g id="s6" transform="matrix(1,0,0,1,794.2,-475.115)">
            <rect x="812.258" y="476.123" width="263.659" height="263.659" style="fill:none;"/>
            <g transform="matrix(1.66554,0,0,1.66554,67.0009,265.117)">
                <path d="M526.608,136.566L528.853,156.562C529.631,163.499 534.119,169.465 540.569,172.137C547.019,174.808 554.411,173.763 559.867,169.408L575.593,156.856L563.041,172.582C558.686,178.038 557.64,185.43 560.312,191.88C562.984,198.33 568.95,202.818 575.887,203.596L595.883,205.84L575.887,208.085C568.95,208.863 562.984,213.351 560.312,219.801C557.64,226.251 558.686,233.643 563.041,239.099L575.593,254.825L559.867,242.273C554.411,237.918 547.019,236.872 540.569,239.544C534.119,242.216 529.631,248.182 528.853,255.119L526.608,275.115L524.364,255.119C523.586,248.182 519.098,242.216 512.648,239.544C506.198,236.872 498.806,237.918 493.35,242.273L477.624,254.825L490.176,239.099C494.531,233.643 495.576,226.251 492.905,219.801C490.233,213.351 484.267,208.863 477.33,208.085L457.334,205.84L477.33,203.596C484.267,202.818 490.233,198.33 492.905,191.88C495.576,185.43 494.531,178.038 490.176,172.582L477.624,156.856L493.35,169.408C498.806,173.763 506.198,174.808 512.648,172.137C519.098,169.465 523.586,163.499 524.364,156.562L526.608,136.566Z"/>
            </g>
        </g>
    </g>
</svg>
