<?xml version="1.0" encoding="utf-8" standalone="no"?>
<!DOCTYPE svg PUBLIC "-//W3C//DTD SVG 1.1//EN"
  "http://www.w3.org/Graphics/SVG/1.1/DTD/svg11.dtd">
<svg xmlns:xlink="http://www.w3.org/1999/xlink" width="720pt" height="720pt" viewBox="0 0 720 720" xmlns="http://www.w3.org/2000/svg" version="1.1">
 <metadata>
  <rdf:RDF xmlns:dc="http://purl.org/dc/elements/1.1/" xmlns:cc="http://creativecommons.org/ns#" xmlns:rdf="http://www.w3.org/1999/02/22-rdf-syntax-ns#">
   <cc:Work>
    <dc:type rdf:resource="http://purl.org/dc/dcmitype/StillImage"/>
    <dc:date>2025-04-11T16:35:46.383224</dc:date>
    <dc:format>image/svg+xml</dc:format>
    <dc:creator>
     <cc:Agent>
      <dc:title>Matplotlib v3.9.2, https://matplotlib.org/</dc:title>
     </cc:Agent>
    </dc:creator>
   </cc:Work>
  </rdf:RDF>
 </metadata>
 <defs>
  <style type="text/css">*{stroke-linejoin: round; stroke-linecap: butt}</style>
 </defs>
 <g id="figure_1">
  <g id="patch_1">
   <path d="M 0 720 
L 720 720 
L 720 0 
L 0 0 
L 0 720 
z
" style="fill: none"/>
  </g>
  <g id="axes_1">
   <g id="line2d_1">
    <path d="M 360 686.921145 
L 360 360 
" clip-path="url(#p0819627920)" style="fill: none; stroke: #00a8d3; stroke-linecap: square"/>
   </g>
   <g id="line2d_2">
    <path d="M 591.168159 591.168159 
L 360 360 
" clip-path="url(#p0819627920)" style="fill: none; stroke: #00a8d3; stroke-linecap: square"/>
   </g>
   <g id="line2d_3">
    <path d="M 686.921145 360 
L 360 360 
" clip-path="url(#p0819627920)" style="fill: none; stroke: #00a8d3; stroke-linecap: square"/>
   </g>
   <g id="line2d_4">
    <path d="M 591.168159 128.831841 
L 360 360 
" clip-path="url(#p0819627920)" style="fill: none; stroke: #00a8d3; stroke-linecap: square"/>
   </g>
   <g id="line2d_5">
    <path d="M 360 33.078855 
L 360 360 
" clip-path="url(#p0819627920)" style="fill: none; stroke: #00a8d3; stroke-linecap: square"/>
   </g>
   <g id="line2d_6">
    <path d="M 128.831841 128.831841 
L 360 360 
" clip-path="url(#p0819627920)" style="fill: none; stroke: #00a8d3; stroke-linecap: square"/>
   </g>
   <g id="line2d_7">
    <path d="M 33.078855 360 
L 360 360 
" clip-path="url(#p0819627920)" style="fill: none; stroke: #00a8d3; stroke-linecap: square"/>
   </g>
   <g id="line2d_8">
    <path d="M 128.831841 591.168159 
L 360 360 
" clip-path="url(#p0819627920)" style="fill: none; stroke: #00a8d3; stroke-linecap: square"/>
   </g>
   <g id="line2d_9">
    <path d="M 360 686.921145 
L 365.239842 686.879151 
L 370.478338 686.753179 
L 375.714143 686.543261 
L 380.94591 686.249451 
L 386.172296 685.871825 
L 391.391958 685.41048 
L 396.603555 684.865534 
L 401.805748 684.237127 
L 406.997201 683.525422 
L 412.17658 682.730599 
L 417.342555 681.852865 
L 422.493798 680.892444 
L 427.628985 679.849583 
L 432.746799 678.72455 
L 437.845922 677.517634 
L 442.925047 676.229145 
L 447.982868 674.859414 
L 453.018085 673.408793 
L 458.029404 671.877654 
L 463.01554 670.266392 
L 467.975209 668.575419 
L 472.907139 666.805171 
L 477.810062 664.956103 
L 482.682719 663.028688 
L 487.523858 661.023423 
L 492.332234 658.940822 
L 497.106613 656.781421 
L 501.845769 654.545774 
L 506.548483 652.234456 
L 511.213548 649.848061 
L 515.839764 647.387201 
L 520.425944 644.852509 
L 524.970909 642.244636 
L 529.473492 639.564252 
L 533.932536 636.812045 
L 538.346895 633.988723 
L 542.715435 631.095011 
L 547.037034 628.131653 
L 551.310581 625.099409 
L 555.53498 621.999059 
L 559.709143 618.831399 
L 563.832 615.597244 
L 567.902491 612.297423 
L 571.919569 608.932785 
L 575.882204 605.504194 
L 579.789377 602.012531 
L 583.640084 598.458693 
L 587.433336 594.843592 
L 591.168159 591.168159 
" clip-path="url(#p0819627920)" style="fill: none; stroke: #00a8d3; stroke-linecap: square"/>
   </g>
   <g id="line2d_10">
    <path d="M 360 549.381199 
L 363.035373 549.356872 
L 366.069966 549.283898 
L 369.103 549.162295 
L 372.133695 548.992095 
L 375.161273 548.773341 
L 378.184956 548.50609 
L 381.203967 548.19041 
L 384.21753 547.826382 
L 387.224872 547.4141 
L 390.22522 546.95367 
L 393.217802 546.44521 
L 396.20185 545.88885 
L 399.176598 545.284734 
L 402.141281 544.633017 
L 405.095138 543.933866 
L 408.037409 543.187461 
L 410.967339 542.393994 
L 413.884176 541.553668 
L 416.787168 540.666699 
L 419.675572 539.733316 
L 422.548645 538.753757 
L 425.405648 537.728275 
L 428.245848 536.657134 
L 431.068515 535.540607 
L 433.872924 534.378983 
L 436.658355 533.172559 
L 439.424091 531.921646 
L 442.169423 530.626565 
L 444.893644 529.287648 
L 447.596056 527.90524 
L 450.275964 526.479696 
L 452.932678 525.011381 
L 455.565518 523.500674 
L 458.173806 521.947962 
L 460.756873 520.353644 
L 463.314054 518.71813 
L 465.844693 517.04184 
L 468.348139 515.325205 
L 470.82375 513.568666 
L 473.27089 511.772673 
L 475.688929 509.937688 
L 478.077246 508.064184 
L 480.435229 506.15264 
L 482.762271 504.203549 
L 485.057774 502.21741 
L 487.321149 500.194735 
L 489.551814 498.136042 
L 491.749196 496.041861 
L 493.91273 493.91273 
" clip-path="url(#p0819627920)" style="fill: none; stroke: #00a8d3; stroke-linecap: square"/>
   </g>
   <g id="line2d_11">
    <path d="M 360 448.108441 
L 361.412189 448.097123 
L 362.824015 448.063172 
L 364.235115 448.006597 
L 365.645127 447.927412 
L 367.053689 447.825638 
L 368.460439 447.701301 
L 369.865015 447.554433 
L 371.267057 447.385071 
L 372.666205 447.19326 
L 374.062098 446.979047 
L 375.454378 446.742489 
L 376.842689 446.483647 
L 378.226672 446.202585 
L 379.605972 445.899378 
L 380.980236 445.574102 
L 382.34911 445.226842 
L 383.712242 444.857686 
L 385.069282 444.46673 
L 386.419882 444.054073 
L 387.763694 443.619822 
L 389.100373 443.164088 
L 390.429576 442.686989 
L 391.750962 442.188647 
L 393.064191 441.66919 
L 394.368925 441.128751 
L 395.664829 440.56747 
L 396.951571 439.985491 
L 398.22882 439.382962 
L 399.496247 438.760039 
L 400.753527 438.116882 
L 402.000338 437.453656 
L 403.236358 436.770532 
L 404.461271 436.067685 
L 405.674761 435.345295 
L 406.876517 434.603549 
L 408.066229 433.842636 
L 409.243594 433.062752 
L 410.408307 432.264098 
L 411.56007 431.446879 
L 412.698586 430.611304 
L 413.823564 429.757589 
L 414.934714 428.885953 
L 416.031751 427.996619 
L 417.114393 427.089816 
L 418.182362 426.165777 
L 419.235383 425.22474 
L 420.273186 424.266946 
L 421.295505 423.292641 
L 422.302076 422.302076 
" clip-path="url(#p0819627920)" style="fill: none; stroke: #00a8d3; stroke-linecap: square"/>
   </g>
   <g id="line2d_12">
    <path d="M 360 360 
L 360 360 
L 360 360 
L 360 360 
L 360 360 
L 360 360 
L 360 360 
L 360 360 
L 360 360 
L 360 360 
L 360 360 
L 360 360 
L 360 360 
L 360 360 
L 360 360 
L 360 360 
L 360 360 
L 360 360 
L 360 360 
L 360 360 
L 360 360 
L 360 360 
L 360 360 
L 360 360 
L 360 360 
L 360 360 
L 360 360 
L 360 360 
L 360 360 
L 360 360 
L 360 360 
L 360 360 
L 360 360 
L 360 360 
L 360 360 
L 360 360 
L 360 360 
L 360 360 
L 360 360 
L 360 360 
L 360 360 
L 360 360 
L 360 360 
L 360 360 
L 360 360 
L 360 360 
L 360 360 
L 360 360 
L 360 360 
L 360 360 
" clip-path="url(#p0819627920)" style="fill: none; stroke: #00a8d3; stroke-linecap: square"/>
   </g>
   <g id="line2d_13">
    <path d="M 591.168159 591.168159 
L 594.843592 587.433336 
L 598.458693 583.640084 
L 602.012531 579.789377 
L 605.504194 575.882204 
L 608.932785 571.919569 
L 612.297423 567.902491 
L 615.597244 563.832 
L 618.831399 559.709143 
L 621.999059 555.53498 
L 625.099409 551.310581 
L 628.131653 547.037034 
L 631.095011 542.715435 
L 633.988723 538.346895 
L 636.812045 533.932536 
L 639.564252 529.473492 
L 642.244636 524.970909 
L 644.852509 520.425944 
L 647.387201 515.839764 
L 649.848061 511.213548 
L 652.234456 506.548483 
L 654.545774 501.845769 
L 656.781421 497.106613 
L 658.940822 492.332234 
L 661.023423 487.523858 
L 663.028688 482.682719 
L 664.956103 477.810062 
L 666.805171 472.907139 
L 668.575419 467.975209 
L 670.266392 463.01554 
L 671.877654 458.029404 
L 673.408793 453.018085 
L 674.859414 447.982868 
L 676.229145 442.925047 
L 677.517634 437.845922 
L 678.72455 432.746799 
L 679.849583 427.628985 
L 680.892444 422.493798 
L 681.852865 417.342555 
L 682.730599 412.17658 
L 683.525422 406.997201 
L 684.237127 401.805748 
L 684.865534 396.603555 
L 685.41048 391.391958 
L 685.871825 386.172296 
L 686.249451 380.94591 
L 686.543261 375.714143 
L 686.753179 370.478338 
L 686.879151 365.239842 
L 686.921145 360 
" clip-path="url(#p0819627920)" style="fill: none; stroke: #00a8d3; stroke-linecap: square"/>
   </g>
   <g id="line2d_14">
    <path d="M 493.91273 493.91273 
L 496.041861 491.749196 
L 498.136042 489.551814 
L 500.194735 487.321149 
L 502.21741 485.057774 
L 504.203549 482.762271 
L 506.15264 480.435229 
L 508.064184 478.077246 
L 509.937688 475.688929 
L 511.772673 473.27089 
L 513.568666 470.82375 
L 515.325205 468.348139 
L 517.04184 465.844693 
L 518.71813 463.314054 
L 520.353644 460.756873 
L 521.947962 458.173806 
L 523.500674 455.565518 
L 525.011381 452.932678 
L 526.479696 450.275964 
L 527.90524 447.596056 
L 529.287648 444.893644 
L 530.626565 442.169423 
L 531.921646 439.424091 
L 533.172559 436.658355 
L 534.378983 433.872924 
L 535.540607 431.068515 
L 536.657134 428.245848 
L 537.728275 425.405648 
L 538.753757 422.548645 
L 539.733316 419.675572 
L 540.666699 416.787168 
L 541.553668 413.884176 
L 542.393994 410.967339 
L 543.187461 408.037409 
L 543.933866 405.095138 
L 544.633017 402.141281 
L 545.284734 399.176598 
L 545.88885 396.20185 
L 546.44521 393.217802 
L 546.95367 390.22522 
L 547.4141 387.224872 
L 547.826382 384.21753 
L 548.19041 381.203967 
L 548.50609 378.184956 
L 548.773341 375.161273 
L 548.992095 372.133695 
L 549.162295 369.103 
L 549.283898 366.069966 
L 549.356872 363.035373 
L 549.381199 360 
" clip-path="url(#p0819627920)" style="fill: none; stroke: #00a8d3; stroke-linecap: square"/>
   </g>
   <g id="line2d_15">
    <path d="M 422.302076 422.302076 
L 423.292641 421.295505 
L 424.266946 420.273186 
L 425.22474 419.235383 
L 426.165777 418.182362 
L 427.089816 417.114393 
L 427.996619 416.031751 
L 428.885953 414.934714 
L 429.757589 413.823564 
L 430.611304 412.698586 
L 431.446879 411.56007 
L 432.264098 410.408307 
L 433.062752 409.243594 
L 433.842636 408.066229 
L 434.603549 406.876517 
L 435.345295 405.674761 
L 436.067685 404.461271 
L 436.770532 403.236358 
L 437.453656 402.000338 
L 438.116882 400.753527 
L 438.760039 399.496247 
L 439.382962 398.22882 
L 439.985491 396.951571 
L 440.56747 395.664829 
L 441.128751 394.368925 
L 441.66919 393.064191 
L 442.188647 391.750962 
L 442.686989 390.429576 
L 443.164088 389.100373 
L 443.619822 387.763694 
L 444.054073 386.419882 
L 444.46673 385.069282 
L 444.857686 383.712242 
L 445.226842 382.34911 
L 445.574102 380.980236 
L 445.899378 379.605972 
L 446.202585 378.226672 
L 446.483647 376.842689 
L 446.742489 375.454378 
L 446.979047 374.062098 
L 447.19326 372.666205 
L 447.385071 371.267057 
L 447.554433 369.865015 
L 447.701301 368.460439 
L 447.825638 367.053689 
L 447.927412 365.645127 
L 448.006597 364.235115 
L 448.063172 362.824015 
L 448.097123 361.412189 
L 448.108441 360 
" clip-path="url(#p0819627920)" style="fill: none; stroke: #00a8d3; stroke-linecap: square"/>
   </g>
   <g id="line2d_16">
    <path d="M 360 360 
L 360 360 
L 360 360 
L 360 360 
L 360 360 
L 360 360 
L 360 360 
L 360 360 
L 360 360 
L 360 360 
L 360 360 
L 360 360 
L 360 360 
L 360 360 
L 360 360 
L 360 360 
L 360 360 
L 360 360 
L 360 360 
L 360 360 
L 360 360 
L 360 360 
L 360 360 
L 360 360 
L 360 360 
L 360 360 
L 360 360 
L 360 360 
L 360 360 
L 360 360 
L 360 360 
L 360 360 
L 360 360 
L 360 360 
L 360 360 
L 360 360 
L 360 360 
L 360 360 
L 360 360 
L 360 360 
L 360 360 
L 360 360 
L 360 360 
L 360 360 
L 360 360 
L 360 360 
L 360 360 
L 360 360 
L 360 360 
L 360 360 
" clip-path="url(#p0819627920)" style="fill: none; stroke: #00a8d3; stroke-linecap: square"/>
   </g>
   <g id="line2d_17">
    <path d="M 686.921145 360 
L 686.879151 354.760158 
L 686.753179 349.521662 
L 686.543261 344.285857 
L 686.249451 339.05409 
L 685.871825 333.827704 
L 685.41048 328.608042 
L 684.865534 323.396445 
L 684.237127 318.194252 
L 683.525422 313.002799 
L 682.730599 307.82342 
L 681.852865 302.657445 
L 680.892444 297.506202 
L 679.849583 292.371015 
L 678.72455 287.253201 
L 677.517634 282.154078 
L 676.229145 277.074953 
L 674.859414 272.017132 
L 673.408793 266.981915 
L 671.877654 261.970596 
L 670.266392 256.98446 
L 668.575419 252.024791 
L 666.805171 247.092861 
L 664.956103 242.189938 
L 663.028688 237.317281 
L 661.023423 232.476142 
L 658.940822 227.667766 
L 656.781421 222.893387 
L 654.545774 218.154231 
L 652.234456 213.451517 
L 649.848061 208.786452 
L 647.387201 204.160236 
L 644.852509 199.574056 
L 642.244636 195.029091 
L 639.564252 190.526508 
L 636.812045 186.067464 
L 633.988723 181.653105 
L 631.095011 177.284565 
L 628.131653 172.962966 
L 625.099409 168.689419 
L 621.999059 164.46502 
L 618.831399 160.290857 
L 615.597244 156.168 
L 612.297423 152.097509 
L 608.932785 148.080431 
L 605.504194 144.117796 
L 602.012531 140.210623 
L 598.458693 136.359916 
L 594.843592 132.566664 
L 591.168159 128.831841 
" clip-path="url(#p0819627920)" style="fill: none; stroke: #00a8d3; stroke-linecap: square"/>
   </g>
   <g id="line2d_18">
    <path d="M 549.381199 360 
L 549.356872 356.964627 
L 549.283898 353.930034 
L 549.162295 350.897 
L 548.992095 347.866305 
L 548.773341 344.838727 
L 548.50609 341.815044 
L 548.19041 338.796033 
L 547.826382 335.78247 
L 547.4141 332.775128 
L 546.95367 329.77478 
L 546.44521 326.782198 
L 545.88885 323.79815 
L 545.284734 320.823402 
L 544.633017 317.858719 
L 543.933866 314.904862 
L 543.187461 311.962591 
L 542.393994 309.032661 
L 541.553668 306.115824 
L 540.666699 303.212832 
L 539.733316 300.324428 
L 538.753757 297.451355 
L 537.728275 294.594352 
L 536.657134 291.754152 
L 535.540607 288.931485 
L 534.378983 286.127076 
L 533.172559 283.341645 
L 531.921646 280.575909 
L 530.626565 277.830577 
L 529.287648 275.106356 
L 527.90524 272.403944 
L 526.479696 269.724036 
L 525.011381 267.067322 
L 523.500674 264.434482 
L 521.947962 261.826194 
L 520.353644 259.243127 
L 518.71813 256.685946 
L 517.04184 254.155307 
L 515.325205 251.651861 
L 513.568666 249.17625 
L 511.772673 246.72911 
L 509.937688 244.311071 
L 508.064184 241.922754 
L 506.15264 239.564771 
L 504.203549 237.237729 
L 502.21741 234.942226 
L 500.194735 232.678851 
L 498.136042 230.448186 
L 496.041861 228.250804 
L 493.91273 226.08727 
" clip-path="url(#p0819627920)" style="fill: none; stroke: #00a8d3; stroke-linecap: square"/>
   </g>
   <g id="line2d_19">
    <path d="M 448.108441 360 
L 448.097123 358.587811 
L 448.063172 357.175985 
L 448.006597 355.764885 
L 447.927412 354.354873 
L 447.825638 352.946311 
L 447.701301 351.539561 
L 447.554433 350.134985 
L 447.385071 348.732943 
L 447.19326 347.333795 
L 446.979047 345.937902 
L 446.742489 344.545622 
L 446.483647 343.157311 
L 446.202585 341.773328 
L 445.899378 340.394028 
L 445.574102 339.019764 
L 445.226842 337.65089 
L 444.857686 336.287758 
L 444.46673 334.930718 
L 444.054073 333.580118 
L 443.619822 332.236306 
L 443.164088 330.899627 
L 442.686989 329.570424 
L 442.188647 328.249038 
L 441.66919 326.935809 
L 441.128751 325.631075 
L 440.56747 324.335171 
L 439.985491 323.048429 
L 439.382962 321.77118 
L 438.760039 320.503753 
L 438.116882 319.246473 
L 437.453656 317.999662 
L 436.770532 316.763642 
L 436.067685 315.538729 
L 435.345295 314.325239 
L 434.603549 313.123483 
L 433.842636 311.933771 
L 433.062752 310.756406 
L 432.264098 309.591693 
L 431.446879 308.43993 
L 430.611304 307.301414 
L 429.757589 306.176436 
L 428.885953 305.065286 
L 427.996619 303.968249 
L 427.089816 302.885607 
L 426.165777 301.817638 
L 425.22474 300.764617 
L 424.266946 299.726814 
L 423.292641 298.704495 
L 422.302076 297.697924 
" clip-path="url(#p0819627920)" style="fill: none; stroke: #00a8d3; stroke-linecap: square"/>
   </g>
   <g id="line2d_20">
    <path d="M 360 360 
L 360 360 
L 360 360 
L 360 360 
L 360 360 
L 360 360 
L 360 360 
L 360 360 
L 360 360 
L 360 360 
L 360 360 
L 360 360 
L 360 360 
L 360 360 
L 360 360 
L 360 360 
L 360 360 
L 360 360 
L 360 360 
L 360 360 
L 360 360 
L 360 360 
L 360 360 
L 360 360 
L 360 360 
L 360 360 
L 360 360 
L 360 360 
L 360 360 
L 360 360 
L 360 360 
L 360 360 
L 360 360 
L 360 360 
L 360 360 
L 360 360 
L 360 360 
L 360 360 
L 360 360 
L 360 360 
L 360 360 
L 360 360 
L 360 360 
L 360 360 
L 360 360 
L 360 360 
L 360 360 
L 360 360 
L 360 360 
L 360 360 
" clip-path="url(#p0819627920)" style="fill: none; stroke: #00a8d3; stroke-linecap: square"/>
   </g>
   <g id="line2d_21">
    <path d="M 591.168159 128.831841 
L 587.433336 125.156408 
L 583.640084 121.541307 
L 579.789377 117.987469 
L 575.882204 114.495806 
L 571.919569 111.067215 
L 567.902491 107.702577 
L 563.832 104.402756 
L 559.709143 101.168601 
L 555.53498 98.000941 
L 551.310581 94.900591 
L 547.037034 91.868347 
L 542.715435 88.904989 
L 538.346895 86.011277 
L 533.932536 83.187955 
L 529.473492 80.435748 
L 524.970909 77.755364 
L 520.425944 75.147491 
L 515.839764 72.612799 
L 511.213548 70.151939 
L 506.548483 67.765544 
L 501.845769 65.454226 
L 497.106613 63.218579 
L 492.332234 61.059178 
L 487.523858 58.976577 
L 482.682719 56.971312 
L 477.810062 55.043897 
L 472.907139 53.194829 
L 467.975209 51.424581 
L 463.01554 49.733608 
L 458.029404 48.122346 
L 453.018085 46.591207 
L 447.982868 45.140586 
L 442.925047 43.770855 
L 437.845922 42.482366 
L 432.746799 41.27545 
L 427.628985 40.150417 
L 422.493798 39.107556 
L 417.342555 38.147135 
L 412.17658 37.269401 
L 406.997201 36.474578 
L 401.805748 35.762873 
L 396.603555 35.134466 
L 391.391958 34.58952 
L 386.172296 34.128175 
L 380.94591 33.750549 
L 375.714143 33.456739 
L 370.478338 33.246821 
L 365.239842 33.120849 
L 360 33.078855 
" clip-path="url(#p0819627920)" style="fill: none; stroke: #00a8d3; stroke-linecap: square"/>
   </g>
   <g id="line2d_22">
    <path d="M 493.91273 226.08727 
L 491.749196 223.958139 
L 489.551814 221.863958 
L 487.321149 219.805265 
L 485.057774 217.78259 
L 482.762271 215.796451 
L 480.435229 213.84736 
L 478.077246 211.935816 
L 475.688929 210.062312 
L 473.27089 208.227327 
L 470.82375 206.431334 
L 468.348139 204.674795 
L 465.844693 202.95816 
L 463.314054 201.28187 
L 460.756873 199.646356 
L 458.173806 198.052038 
L 455.565518 196.499326 
L 452.932678 194.988619 
L 450.275964 193.520304 
L 447.596056 192.09476 
L 444.893644 190.712352 
L 442.169423 189.373435 
L 439.424091 188.078354 
L 436.658355 186.827441 
L 433.872924 185.621017 
L 431.068515 184.459393 
L 428.245848 183.342866 
L 425.405648 182.271725 
L 422.548645 181.246243 
L 419.675572 180.266684 
L 416.787168 179.333301 
L 413.884176 178.446332 
L 410.967339 177.606006 
L 408.037409 176.812539 
L 405.095138 176.066134 
L 402.141281 175.366983 
L 399.176598 174.715266 
L 396.20185 174.11115 
L 393.217802 173.55479 
L 390.22522 173.04633 
L 387.224872 172.5859 
L 384.21753 172.173618 
L 381.203967 171.80959 
L 378.184956 171.49391 
L 375.161273 171.226659 
L 372.133695 171.007905 
L 369.103 170.837705 
L 366.069966 170.716102 
L 363.035373 170.643128 
L 360 170.618801 
" clip-path="url(#p0819627920)" style="fill: none; stroke: #00a8d3; stroke-linecap: square"/>
   </g>
   <g id="line2d_23">
    <path d="M 422.302076 297.697924 
L 421.295505 296.707359 
L 420.273186 295.733054 
L 419.235383 294.77526 
L 418.182362 293.834223 
L 417.114393 292.910184 
L 416.031751 292.003381 
L 414.934714 291.114047 
L 413.823564 290.242411 
L 412.698586 289.388696 
L 411.56007 288.553121 
L 410.408307 287.735902 
L 409.243594 286.937248 
L 408.066229 286.157364 
L 406.876517 285.396451 
L 405.674761 284.654705 
L 404.461271 283.932315 
L 403.236358 283.229468 
L 402.000338 282.546344 
L 400.753527 281.883118 
L 399.496247 281.239961 
L 398.22882 280.617038 
L 396.951571 280.014509 
L 395.664829 279.43253 
L 394.368925 278.871249 
L 393.064191 278.33081 
L 391.750962 277.811353 
L 390.429576 277.313011 
L 389.100373 276.835912 
L 387.763694 276.380178 
L 386.419882 275.945927 
L 385.069282 275.53327 
L 383.712242 275.142314 
L 382.34911 274.773158 
L 380.980236 274.425898 
L 379.605972 274.100622 
L 378.226672 273.797415 
L 376.842689 273.516353 
L 375.454378 273.257511 
L 374.062098 273.020953 
L 372.666205 272.80674 
L 371.267057 272.614929 
L 369.865015 272.445567 
L 368.460439 272.298699 
L 367.053689 272.174362 
L 365.645127 272.072588 
L 364.235115 271.993403 
L 362.824015 271.936828 
L 361.412189 271.902877 
L 360 271.891559 
" clip-path="url(#p0819627920)" style="fill: none; stroke: #00a8d3; stroke-linecap: square"/>
   </g>
   <g id="line2d_24">
    <path d="M 360 360 
L 360 360 
L 360 360 
L 360 360 
L 360 360 
L 360 360 
L 360 360 
L 360 360 
L 360 360 
L 360 360 
L 360 360 
L 360 360 
L 360 360 
L 360 360 
L 360 360 
L 360 360 
L 360 360 
L 360 360 
L 360 360 
L 360 360 
L 360 360 
L 360 360 
L 360 360 
L 360 360 
L 360 360 
L 360 360 
L 360 360 
L 360 360 
L 360 360 
L 360 360 
L 360 360 
L 360 360 
L 360 360 
L 360 360 
L 360 360 
L 360 360 
L 360 360 
L 360 360 
L 360 360 
L 360 360 
L 360 360 
L 360 360 
L 360 360 
L 360 360 
L 360 360 
L 360 360 
L 360 360 
L 360 360 
L 360 360 
L 360 360 
" clip-path="url(#p0819627920)" style="fill: none; stroke: #00a8d3; stroke-linecap: square"/>
   </g>
   <g id="line2d_25">
    <path d="M 360 33.078855 
L 354.760158 33.120849 
L 349.521662 33.246821 
L 344.285857 33.456739 
L 339.05409 33.750549 
L 333.827704 34.128175 
L 328.608042 34.58952 
L 323.396445 35.134466 
L 318.194252 35.762873 
L 313.002799 36.474578 
L 307.82342 37.269401 
L 302.657445 38.147135 
L 297.506202 39.107556 
L 292.371015 40.150417 
L 287.253201 41.27545 
L 282.154078 42.482366 
L 277.074953 43.770855 
L 272.017132 45.140586 
L 266.981915 46.591207 
L 261.970596 48.122346 
L 256.98446 49.733608 
L 252.024791 51.424581 
L 247.092861 53.194829 
L 242.189938 55.043897 
L 237.317281 56.971312 
L 232.476142 58.976577 
L 227.667766 61.059178 
L 222.893387 63.218579 
L 218.154231 65.454226 
L 213.451517 67.765544 
L 208.786452 70.151939 
L 204.160236 72.612799 
L 199.574056 75.147491 
L 195.029091 77.755364 
L 190.526508 80.435748 
L 186.067464 83.187955 
L 181.653105 86.011277 
L 177.284565 88.904989 
L 172.962966 91.868347 
L 168.689419 94.900591 
L 164.46502 98.000941 
L 160.290857 101.168601 
L 156.168 104.402756 
L 152.097509 107.702577 
L 148.080431 111.067215 
L 144.117796 114.495806 
L 140.210623 117.987469 
L 136.359916 121.541307 
L 132.566664 125.156408 
L 128.831841 128.831841 
" clip-path="url(#p0819627920)" style="fill: none; stroke: #00a8d3; stroke-linecap: square"/>
   </g>
   <g id="line2d_26">
    <path d="M 360 170.618801 
L 356.964627 170.643128 
L 353.930034 170.716102 
L 350.897 170.837705 
L 347.866305 171.007905 
L 344.838727 171.226659 
L 341.815044 171.49391 
L 338.796033 171.80959 
L 335.78247 172.173618 
L 332.775128 172.5859 
L 329.77478 173.04633 
L 326.782198 173.55479 
L 323.79815 174.11115 
L 320.823402 174.715266 
L 317.858719 175.366983 
L 314.904862 176.066134 
L 311.962591 176.812539 
L 309.032661 177.606006 
L 306.115824 178.446332 
L 303.212832 179.333301 
L 300.324428 180.266684 
L 297.451355 181.246243 
L 294.594352 182.271725 
L 291.754152 183.342866 
L 288.931485 184.459393 
L 286.127076 185.621017 
L 283.341645 186.827441 
L 280.575909 188.078354 
L 277.830577 189.373435 
L 275.106356 190.712352 
L 272.403944 192.09476 
L 269.724036 193.520304 
L 267.067322 194.988619 
L 264.434482 196.499326 
L 261.826194 198.052038 
L 259.243127 199.646356 
L 256.685946 201.28187 
L 254.155307 202.95816 
L 251.651861 204.674795 
L 249.17625 206.431334 
L 246.72911 208.227327 
L 244.311071 210.062312 
L 241.922754 211.935816 
L 239.564771 213.84736 
L 237.237729 215.796451 
L 234.942226 217.78259 
L 232.678851 219.805265 
L 230.448186 221.863958 
L 228.250804 223.958139 
L 226.08727 226.08727 
" clip-path="url(#p0819627920)" style="fill: none; stroke: #00a8d3; stroke-linecap: square"/>
   </g>
   <g id="line2d_27">
    <path d="M 360 271.891559 
L 358.587811 271.902877 
L 357.175985 271.936828 
L 355.764885 271.993403 
L 354.354873 272.072588 
L 352.946311 272.174362 
L 351.539561 272.298699 
L 350.134985 272.445567 
L 348.732943 272.614929 
L 347.333795 272.80674 
L 345.937902 273.020953 
L 344.545622 273.257511 
L 343.157311 273.516353 
L 341.773328 273.797415 
L 340.394028 274.100622 
L 339.019764 274.425898 
L 337.65089 274.773158 
L 336.287758 275.142314 
L 334.930718 275.53327 
L 333.580118 275.945927 
L 332.236306 276.380178 
L 330.899627 276.835912 
L 329.570424 277.313011 
L 328.249038 277.811353 
L 326.935809 278.33081 
L 325.631075 278.871249 
L 324.335171 279.43253 
L 323.048429 280.014509 
L 321.77118 280.617038 
L 320.503753 281.239961 
L 319.246473 281.883118 
L 317.999662 282.546344 
L 316.763642 283.229468 
L 315.538729 283.932315 
L 314.325239 284.654705 
L 313.123483 285.396451 
L 311.933771 286.157364 
L 310.756406 286.937248 
L 309.591693 287.735902 
L 308.43993 288.553121 
L 307.301414 289.388696 
L 306.176436 290.242411 
L 305.065286 291.114047 
L 303.968249 292.003381 
L 302.885607 292.910184 
L 301.817638 293.834223 
L 300.764617 294.77526 
L 299.726814 295.733054 
L 298.704495 296.707359 
L 297.697924 297.697924 
" clip-path="url(#p0819627920)" style="fill: none; stroke: #00a8d3; stroke-linecap: square"/>
   </g>
   <g id="line2d_28">
    <path d="M 360 360 
L 360 360 
L 360 360 
L 360 360 
L 360 360 
L 360 360 
L 360 360 
L 360 360 
L 360 360 
L 360 360 
L 360 360 
L 360 360 
L 360 360 
L 360 360 
L 360 360 
L 360 360 
L 360 360 
L 360 360 
L 360 360 
L 360 360 
L 360 360 
L 360 360 
L 360 360 
L 360 360 
L 360 360 
L 360 360 
L 360 360 
L 360 360 
L 360 360 
L 360 360 
L 360 360 
L 360 360 
L 360 360 
L 360 360 
L 360 360 
L 360 360 
L 360 360 
L 360 360 
L 360 360 
L 360 360 
L 360 360 
L 360 360 
L 360 360 
L 360 360 
L 360 360 
L 360 360 
L 360 360 
L 360 360 
L 360 360 
L 360 360 
" clip-path="url(#p0819627920)" style="fill: none; stroke: #00a8d3; stroke-linecap: square"/>
   </g>
   <g id="line2d_29">
    <path d="M 128.831841 128.831841 
L 125.156408 132.566664 
L 121.541307 136.359916 
L 117.987469 140.210623 
L 114.495806 144.117796 
L 111.067215 148.080431 
L 107.702577 152.097509 
L 104.402756 156.168 
L 101.168601 160.290857 
L 98.000941 164.46502 
L 94.900591 168.689419 
L 91.868347 172.962966 
L 88.904989 177.284565 
L 86.011277 181.653105 
L 83.187955 186.067464 
L 80.435748 190.526508 
L 77.755364 195.029091 
L 75.147491 199.574056 
L 72.612799 204.160236 
L 70.151939 208.786452 
L 67.765544 213.451517 
L 65.454226 218.154231 
L 63.218579 222.893387 
L 61.059178 227.667766 
L 58.976577 232.476142 
L 56.971312 237.317281 
L 55.043897 242.189938 
L 53.194829 247.092861 
L 51.424581 252.024791 
L 49.733608 256.98446 
L 48.122346 261.970596 
L 46.591207 266.981915 
L 45.140586 272.017132 
L 43.770855 277.074953 
L 42.482366 282.154078 
L 41.27545 287.253201 
L 40.150417 292.371015 
L 39.107556 297.506202 
L 38.147135 302.657445 
L 37.269401 307.82342 
L 36.474578 313.002799 
L 35.762873 318.194252 
L 35.134466 323.396445 
L 34.58952 328.608042 
L 34.128175 333.827704 
L 33.750549 339.05409 
L 33.456739 344.285857 
L 33.246821 349.521662 
L 33.120849 354.760158 
L 33.078855 360 
" clip-path="url(#p0819627920)" style="fill: none; stroke: #00a8d3; stroke-linecap: square"/>
   </g>
   <g id="line2d_30">
    <path d="M 226.08727 226.08727 
L 223.958139 228.250804 
L 221.863958 230.448186 
L 219.805265 232.678851 
L 217.78259 234.942226 
L 215.796451 237.237729 
L 213.84736 239.564771 
L 211.935816 241.922754 
L 210.062312 244.311071 
L 208.227327 246.72911 
L 206.431334 249.17625 
L 204.674795 251.651861 
L 202.95816 254.155307 
L 201.28187 256.685946 
L 199.646356 259.243127 
L 198.052038 261.826194 
L 196.499326 264.434482 
L 194.988619 267.067322 
L 193.520304 269.724036 
L 192.09476 272.403944 
L 190.712352 275.106356 
L 189.373435 277.830577 
L 188.078354 280.575909 
L 186.827441 283.341645 
L 185.621017 286.127076 
L 184.459393 288.931485 
L 183.342866 291.754152 
L 182.271725 294.594352 
L 181.246243 297.451355 
L 180.266684 300.324428 
L 179.333301 303.212832 
L 178.446332 306.115824 
L 177.606006 309.032661 
L 176.812539 311.962591 
L 176.066134 314.904862 
L 175.366983 317.858719 
L 174.715266 320.823402 
L 174.11115 323.79815 
L 173.55479 326.782198 
L 173.04633 329.77478 
L 172.5859 332.775128 
L 172.173618 335.78247 
L 171.80959 338.796033 
L 171.49391 341.815044 
L 171.226659 344.838727 
L 171.007905 347.866305 
L 170.837705 350.897 
L 170.716102 353.930034 
L 170.643128 356.964627 
L 170.618801 360 
" clip-path="url(#p0819627920)" style="fill: none; stroke: #00a8d3; stroke-linecap: square"/>
   </g>
   <g id="line2d_31">
    <path d="M 297.697924 297.697924 
L 296.707359 298.704495 
L 295.733054 299.726814 
L 294.77526 300.764617 
L 293.834223 301.817638 
L 292.910184 302.885607 
L 292.003381 303.968249 
L 291.114047 305.065286 
L 290.242411 306.176436 
L 289.388696 307.301414 
L 288.553121 308.43993 
L 287.735902 309.591693 
L 286.937248 310.756406 
L 286.157364 311.933771 
L 285.396451 313.123483 
L 284.654705 314.325239 
L 283.932315 315.538729 
L 283.229468 316.763642 
L 282.546344 317.999662 
L 281.883118 319.246473 
L 281.239961 320.503753 
L 280.617038 321.77118 
L 280.014509 323.048429 
L 279.43253 324.335171 
L 278.871249 325.631075 
L 278.33081 326.935809 
L 277.811353 328.249038 
L 277.313011 329.570424 
L 276.835912 330.899627 
L 276.380178 332.236306 
L 275.945927 333.580118 
L 275.53327 334.930718 
L 275.142314 336.287758 
L 274.773158 337.65089 
L 274.425898 339.019764 
L 274.100622 340.394028 
L 273.797415 341.773328 
L 273.516353 343.157311 
L 273.257511 344.545622 
L 273.020953 345.937902 
L 272.80674 347.333795 
L 272.614929 348.732943 
L 272.445567 350.134985 
L 272.298699 351.539561 
L 272.174362 352.946311 
L 272.072588 354.354873 
L 271.993403 355.764885 
L 271.936828 357.175985 
L 271.902877 358.587811 
L 271.891559 360 
" clip-path="url(#p0819627920)" style="fill: none; stroke: #00a8d3; stroke-linecap: square"/>
   </g>
   <g id="line2d_32">
    <path d="M 360 360 
L 360 360 
L 360 360 
L 360 360 
L 360 360 
L 360 360 
L 360 360 
L 360 360 
L 360 360 
L 360 360 
L 360 360 
L 360 360 
L 360 360 
L 360 360 
L 360 360 
L 360 360 
L 360 360 
L 360 360 
L 360 360 
L 360 360 
L 360 360 
L 360 360 
L 360 360 
L 360 360 
L 360 360 
L 360 360 
L 360 360 
L 360 360 
L 360 360 
L 360 360 
L 360 360 
L 360 360 
L 360 360 
L 360 360 
L 360 360 
L 360 360 
L 360 360 
L 360 360 
L 360 360 
L 360 360 
L 360 360 
L 360 360 
L 360 360 
L 360 360 
L 360 360 
L 360 360 
L 360 360 
L 360 360 
L 360 360 
L 360 360 
" clip-path="url(#p0819627920)" style="fill: none; stroke: #00a8d3; stroke-linecap: square"/>
   </g>
   <g id="line2d_33">
    <path d="M 33.078855 360 
L 33.120849 365.239842 
L 33.246821 370.478338 
L 33.456739 375.714143 
L 33.750549 380.94591 
L 34.128175 386.172296 
L 34.58952 391.391958 
L 35.134466 396.603555 
L 35.762873 401.805748 
L 36.474578 406.997201 
L 37.269401 412.17658 
L 38.147135 417.342555 
L 39.107556 422.493798 
L 40.150417 427.628985 
L 41.27545 432.746799 
L 42.482366 437.845922 
L 43.770855 442.925047 
L 45.140586 447.982868 
L 46.591207 453.018085 
L 48.122346 458.029404 
L 49.733608 463.01554 
L 51.424581 467.975209 
L 53.194829 472.907139 
L 55.043897 477.810062 
L 56.971312 482.682719 
L 58.976577 487.523858 
L 61.059178 492.332234 
L 63.218579 497.106613 
L 65.454226 501.845769 
L 67.765544 506.548483 
L 70.151939 511.213548 
L 72.612799 515.839764 
L 75.147491 520.425944 
L 77.755364 524.970909 
L 80.435748 529.473492 
L 83.187955 533.932536 
L 86.011277 538.346895 
L 88.904989 542.715435 
L 91.868347 547.037034 
L 94.900591 551.310581 
L 98.000941 555.53498 
L 101.168601 559.709143 
L 104.402756 563.832 
L 107.702577 567.902491 
L 111.067215 571.919569 
L 114.495806 575.882204 
L 117.987469 579.789377 
L 121.541307 583.640084 
L 125.156408 587.433336 
L 128.831841 591.168159 
" clip-path="url(#p0819627920)" style="fill: none; stroke: #00a8d3; stroke-linecap: square"/>
   </g>
   <g id="line2d_34">
    <path d="M 170.618801 360 
L 170.643128 363.035373 
L 170.716102 366.069966 
L 170.837705 369.103 
L 171.007905 372.133695 
L 171.226659 375.161273 
L 171.49391 378.184956 
L 171.80959 381.203967 
L 172.173618 384.21753 
L 172.5859 387.224872 
L 173.04633 390.22522 
L 173.55479 393.217802 
L 174.11115 396.20185 
L 174.715266 399.176598 
L 175.366983 402.141281 
L 176.066134 405.095138 
L 176.812539 408.037409 
L 177.606006 410.967339 
L 178.446332 413.884176 
L 179.333301 416.787168 
L 180.266684 419.675572 
L 181.246243 422.548645 
L 182.271725 425.405648 
L 183.342866 428.245848 
L 184.459393 431.068515 
L 185.621017 433.872924 
L 186.827441 436.658355 
L 188.078354 439.424091 
L 189.373435 442.169423 
L 190.712352 444.893644 
L 192.09476 447.596056 
L 193.520304 450.275964 
L 194.988619 452.932678 
L 196.499326 455.565518 
L 198.052038 458.173806 
L 199.646356 460.756873 
L 201.28187 463.314054 
L 202.95816 465.844693 
L 204.674795 468.348139 
L 206.431334 470.82375 
L 208.227327 473.27089 
L 210.062312 475.688929 
L 211.935816 478.077246 
L 213.84736 480.435229 
L 215.796451 482.762271 
L 217.78259 485.057774 
L 219.805265 487.321149 
L 221.863958 489.551814 
L 223.958139 491.749196 
L 226.08727 493.91273 
" clip-path="url(#p0819627920)" style="fill: none; stroke: #00a8d3; stroke-linecap: square"/>
   </g>
   <g id="line2d_35">
    <path d="M 271.891559 360 
L 271.902877 361.412189 
L 271.936828 362.824015 
L 271.993403 364.235115 
L 272.072588 365.645127 
L 272.174362 367.053689 
L 272.298699 368.460439 
L 272.445567 369.865015 
L 272.614929 371.267057 
L 272.80674 372.666205 
L 273.020953 374.062098 
L 273.257511 375.454378 
L 273.516353 376.842689 
L 273.797415 378.226672 
L 274.100622 379.605972 
L 274.425898 380.980236 
L 274.773158 382.34911 
L 275.142314 383.712242 
L 275.53327 385.069282 
L 275.945927 386.419882 
L 276.380178 387.763694 
L 276.835912 389.100373 
L 277.313011 390.429576 
L 277.811353 391.750962 
L 278.33081 393.064191 
L 278.871249 394.368925 
L 279.43253 395.664829 
L 280.014509 396.951571 
L 280.617038 398.22882 
L 281.239961 399.496247 
L 281.883118 400.753527 
L 282.546344 402.000338 
L 283.229468 403.236358 
L 283.932315 404.461271 
L 284.654705 405.674761 
L 285.396451 406.876517 
L 286.157364 408.066229 
L 286.937248 409.243594 
L 287.735902 410.408307 
L 288.553121 411.56007 
L 289.388696 412.698586 
L 290.242411 413.823564 
L 291.114047 414.934714 
L 292.003381 416.031751 
L 292.910184 417.114393 
L 293.834223 418.182362 
L 294.77526 419.235383 
L 295.733054 420.273186 
L 296.707359 421.295505 
L 297.697924 422.302076 
" clip-path="url(#p0819627920)" style="fill: none; stroke: #00a8d3; stroke-linecap: square"/>
   </g>
   <g id="line2d_36">
    <path d="M 360 360 
L 360 360 
L 360 360 
L 360 360 
L 360 360 
L 360 360 
L 360 360 
L 360 360 
L 360 360 
L 360 360 
L 360 360 
L 360 360 
L 360 360 
L 360 360 
L 360 360 
L 360 360 
L 360 360 
L 360 360 
L 360 360 
L 360 360 
L 360 360 
L 360 360 
L 360 360 
L 360 360 
L 360 360 
L 360 360 
L 360 360 
L 360 360 
L 360 360 
L 360 360 
L 360 360 
L 360 360 
L 360 360 
L 360 360 
L 360 360 
L 360 360 
L 360 360 
L 360 360 
L 360 360 
L 360 360 
L 360 360 
L 360 360 
L 360 360 
L 360 360 
L 360 360 
L 360 360 
L 360 360 
L 360 360 
L 360 360 
L 360 360 
" clip-path="url(#p0819627920)" style="fill: none; stroke: #00a8d3; stroke-linecap: square"/>
   </g>
   <g id="line2d_37">
    <path d="M 128.831841 591.168159 
L 132.566664 594.843592 
L 136.359916 598.458693 
L 140.210623 602.012531 
L 144.117796 605.504194 
L 148.080431 608.932785 
L 152.097509 612.297423 
L 156.168 615.597244 
L 160.290857 618.831399 
L 164.46502 621.999059 
L 168.689419 625.099409 
L 172.962966 628.131653 
L 177.284565 631.095011 
L 181.653105 633.988723 
L 186.067464 636.812045 
L 190.526508 639.564252 
L 195.029091 642.244636 
L 199.574056 644.852509 
L 204.160236 647.387201 
L 208.786452 649.848061 
L 213.451517 652.234456 
L 218.154231 654.545774 
L 222.893387 656.781421 
L 227.667766 658.940822 
L 232.476142 661.023423 
L 237.317281 663.028688 
L 242.189938 664.956103 
L 247.092861 666.805171 
L 252.024791 668.575419 
L 256.98446 670.266392 
L 261.970596 671.877654 
L 266.981915 673.408793 
L 272.017132 674.859414 
L 277.074953 676.229145 
L 282.154078 677.517634 
L 287.253201 678.72455 
L 292.371015 679.849583 
L 297.506202 680.892444 
L 302.657445 681.852865 
L 307.82342 682.730599 
L 313.002799 683.525422 
L 318.194252 684.237127 
L 323.396445 684.865534 
L 328.608042 685.41048 
L 333.827704 685.871825 
L 339.05409 686.249451 
L 344.285857 686.543261 
L 349.521662 686.753179 
L 354.760158 686.879151 
L 360 686.921145 
" clip-path="url(#p0819627920)" style="fill: none; stroke: #00a8d3; stroke-linecap: square"/>
   </g>
   <g id="line2d_38">
    <path d="M 226.08727 493.91273 
L 228.250804 496.041861 
L 230.448186 498.136042 
L 232.678851 500.194735 
L 234.942226 502.21741 
L 237.237729 504.203549 
L 239.564771 506.15264 
L 241.922754 508.064184 
L 244.311071 509.937688 
L 246.72911 511.772673 
L 249.17625 513.568666 
L 251.651861 515.325205 
L 254.155307 517.04184 
L 256.685946 518.71813 
L 259.243127 520.353644 
L 261.826194 521.947962 
L 264.434482 523.500674 
L 267.067322 525.011381 
L 269.724036 526.479696 
L 272.403944 527.90524 
L 275.106356 529.287648 
L 277.830577 530.626565 
L 280.575909 531.921646 
L 283.341645 533.172559 
L 286.127076 534.378983 
L 288.931485 535.540607 
L 291.754152 536.657134 
L 294.594352 537.728275 
L 297.451355 538.753757 
L 300.324428 539.733316 
L 303.212832 540.666699 
L 306.115824 541.553668 
L 309.032661 542.393994 
L 311.962591 543.187461 
L 314.904862 543.933866 
L 317.858719 544.633017 
L 320.823402 545.284734 
L 323.79815 545.88885 
L 326.782198 546.44521 
L 329.77478 546.95367 
L 332.775128 547.4141 
L 335.78247 547.826382 
L 338.796033 548.19041 
L 341.815044 548.50609 
L 344.838727 548.773341 
L 347.866305 548.992095 
L 350.897 549.162295 
L 353.930034 549.283898 
L 356.964627 549.356872 
L 360 549.381199 
" clip-path="url(#p0819627920)" style="fill: none; stroke: #00a8d3; stroke-linecap: square"/>
   </g>
   <g id="line2d_39">
    <path d="M 297.697924 422.302076 
L 298.704495 423.292641 
L 299.726814 424.266946 
L 300.764617 425.22474 
L 301.817638 426.165777 
L 302.885607 427.089816 
L 303.968249 427.996619 
L 305.065286 428.885953 
L 306.176436 429.757589 
L 307.301414 430.611304 
L 308.43993 431.446879 
L 309.591693 432.264098 
L 310.756406 433.062752 
L 311.933771 433.842636 
L 313.123483 434.603549 
L 314.325239 435.345295 
L 315.538729 436.067685 
L 316.763642 436.770532 
L 317.999662 437.453656 
L 319.246473 438.116882 
L 320.503753 438.760039 
L 321.77118 439.382962 
L 323.048429 439.985491 
L 324.335171 440.56747 
L 325.631075 441.128751 
L 326.935809 441.66919 
L 328.249038 442.188647 
L 329.570424 442.686989 
L 330.899627 443.164088 
L 332.236306 443.619822 
L 333.580118 444.054073 
L 334.930718 444.46673 
L 336.287758 444.857686 
L 337.65089 445.226842 
L 339.019764 445.574102 
L 340.394028 445.899378 
L 341.773328 446.202585 
L 343.157311 446.483647 
L 344.545622 446.742489 
L 345.937902 446.979047 
L 347.333795 447.19326 
L 348.732943 447.385071 
L 350.134985 447.554433 
L 351.539561 447.701301 
L 352.946311 447.825638 
L 354.354873 447.927412 
L 355.764885 448.006597 
L 357.175985 448.063172 
L 358.587811 448.097123 
L 360 448.108441 
" clip-path="url(#p0819627920)" style="fill: none; stroke: #00a8d3; stroke-linecap: square"/>
   </g>
   <g id="line2d_40">
    <path d="M 360 360 
L 360 360 
L 360 360 
L 360 360 
L 360 360 
L 360 360 
L 360 360 
L 360 360 
L 360 360 
L 360 360 
L 360 360 
L 360 360 
L 360 360 
L 360 360 
L 360 360 
L 360 360 
L 360 360 
L 360 360 
L 360 360 
L 360 360 
L 360 360 
L 360 360 
L 360 360 
L 360 360 
L 360 360 
L 360 360 
L 360 360 
L 360 360 
L 360 360 
L 360 360 
L 360 360 
L 360 360 
L 360 360 
L 360 360 
L 360 360 
L 360 360 
L 360 360 
L 360 360 
L 360 360 
L 360 360 
L 360 360 
L 360 360 
L 360 360 
L 360 360 
L 360 360 
L 360 360 
L 360 360 
L 360 360 
L 360 360 
L 360 360 
" clip-path="url(#p0819627920)" style="fill: none; stroke: #00a8d3; stroke-linecap: square"/>
   </g>
   <g id="text_1">
    <text style="fill: #00a8d3; font-size: 10.0px; font-family: 'DejaVu Sans', 'Bitstream Vera Sans', 'Computer Modern Sans Serif', 'Lucida Grande', 'Verdana', 'Geneva', 'Lucid', 'Arial', 'Helvetica', 'Avant Garde', sans-serif; text-anchor: middle" x="360" y="695.397884" transform="rotate(-0 360 695.397884)">0h</text>
   </g>
   <g id="text_2">
    <text style="fill: #00a8d3; font-size: 10.0px; font-family: 'DejaVu Sans', 'Bitstream Vera Sans', 'Computer Modern Sans Serif', 'Lucida Grande', 'Verdana', 'Geneva', 'Lucid', 'Arial', 'Helvetica', 'Avant Garde', sans-serif; text-anchor: middle" x="360" y="689.68052" transform="rotate(-0 360 689.68052)">0째</text>
   </g>
   <g id="text_3">
    <text style="fill: #00a8d3; font-size: 10.0px; font-family: 'DejaVu Sans', 'Bitstream Vera Sans', 'Computer Modern Sans Serif', 'Lucida Grande', 'Verdana', 'Geneva', 'Lucid', 'Arial', 'Helvetica', 'Avant Garde', sans-serif; text-anchor: middle" x="360" y="552.140574" transform="rotate(-0 360 552.140574)">30째</text>
   </g>
   <g id="text_4">
    <text style="fill: #00a8d3; font-size: 10.0px; font-family: 'DejaVu Sans', 'Bitstream Vera Sans', 'Computer Modern Sans Serif', 'Lucida Grande', 'Verdana', 'Geneva', 'Lucid', 'Arial', 'Helvetica', 'Avant Garde', sans-serif; text-anchor: middle" x="360" y="450.867816" transform="rotate(-0 360 450.867816)">60째</text>
   </g>
   <g id="text_5">
    <text style="fill: #00a8d3; font-size: 10.0px; font-family: 'DejaVu Sans', 'Bitstream Vera Sans', 'Computer Modern Sans Serif', 'Lucida Grande', 'Verdana', 'Geneva', 'Lucid', 'Arial', 'Helvetica', 'Avant Garde', sans-serif; text-anchor: middle" x="360" y="362.759375" transform="rotate(-0 360 362.759375)">90째</text>
   </g>
   <g id="text_6">
    <text style="fill: #00a8d3; font-size: 10.0px; font-family: 'DejaVu Sans', 'Bitstream Vera Sans', 'Computer Modern Sans Serif', 'Lucida Grande', 'Verdana', 'Geneva', 'Lucid', 'Arial', 'Helvetica', 'Avant Garde', sans-serif" transform="translate(590.422507 603.90173) rotate(-45)">23h</text>
   </g>
   <g id="text_7">
    <text style="fill: #00a8d3; font-size: 10.0px; font-family: 'DejaVu Sans', 'Bitstream Vera Sans', 'Computer Modern Sans Serif', 'Lucida Grande', 'Verdana', 'Geneva', 'Lucid', 'Arial', 'Helvetica', 'Avant Garde', sans-serif" transform="translate(689.879134 350.46875) rotate(-270)">22h</text>
   </g>
   <g id="text_8">
    <text style="fill: #00a8d3; font-size: 10.0px; font-family: 'DejaVu Sans', 'Bitstream Vera Sans', 'Computer Modern Sans Serif', 'Lucida Grande', 'Verdana', 'Geneva', 'Lucid', 'Arial', 'Helvetica', 'Avant Garde', sans-serif" transform="translate(586.520161 120.000616) rotate(-315)">21h</text>
   </g>
   <g id="text_9">
    <text style="fill: #00a8d3; font-size: 10.0px; font-family: 'DejaVu Sans', 'Bitstream Vera Sans', 'Computer Modern Sans Serif', 'Lucida Grande', 'Verdana', 'Geneva', 'Lucid', 'Arial', 'Helvetica', 'Avant Garde', sans-serif; text-anchor: middle" x="360" y="30.120866" transform="rotate(-0 360 30.120866)">20h</text>
   </g>
   <g id="text_10">
    <text style="fill: #00a8d3; font-size: 10.0px; font-family: 'DejaVu Sans', 'Bitstream Vera Sans', 'Computer Modern Sans Serif', 'Lucida Grande', 'Verdana', 'Geneva', 'Lucid', 'Arial', 'Helvetica', 'Avant Garde', sans-serif" transform="translate(120.000616 133.479839) rotate(-45)">19h</text>
   </g>
   <g id="text_11">
    <text style="fill: #00a8d3; font-size: 10.0px; font-family: 'DejaVu Sans', 'Bitstream Vera Sans', 'Computer Modern Sans Serif', 'Lucida Grande', 'Verdana', 'Geneva', 'Lucid', 'Arial', 'Helvetica', 'Avant Garde', sans-serif" transform="translate(30.120866 369.53125) rotate(-90)">18h</text>
   </g>
   <g id="text_12">
    <text style="fill: #00a8d3; font: 10px 'DejaVu Sans', 'Bitstream Vera Sans', 'Computer Modern Sans Serif', 'Lucida Grande', 'Verdana', 'Geneva', 'Lucid', 'Arial', 'Helvetica', 'Avant Garde', sans-serif" transform="translate(116.09827 590.422507) rotate(-315)">17h</text>
   </g>
  </g>
 </g>
 <defs>
  <clipPath id="p0819627920">
   <path d="M 720 0 
L 720 0 
L 720 720 
L 0 720 
L 0 0 
z
"/>
  </clipPath>
 </defs>
</svg>
