<?xml version="1.0" encoding="utf-8" standalone="no"?>
<!DOCTYPE svg PUBLIC "-//W3C//DTD SVG 1.1//EN"
  "http://www.w3.org/Graphics/SVG/1.1/DTD/svg11.dtd">
<svg xmlns:xlink="http://www.w3.org/1999/xlink" width="720pt" height="720pt" viewBox="0 0 720 720" xmlns="http://www.w3.org/2000/svg" version="1.1">
 <metadata>
  <rdf:RDF xmlns:dc="http://purl.org/dc/elements/1.1/" xmlns:cc="http://creativecommons.org/ns#" xmlns:rdf="http://www.w3.org/1999/02/22-rdf-syntax-ns#">
   <cc:Work>
    <dc:type rdf:resource="http://purl.org/dc/dcmitype/StillImage"/>
    <dc:date>2025-04-11T16:36:26.837115</dc:date>
    <dc:format>image/svg+xml</dc:format>
    <dc:creator>
     <cc:Agent>
      <dc:title>Matplotlib v3.9.2, https://matplotlib.org/</dc:title>
     </cc:Agent>
    </dc:creator>
   </cc:Work>
  </rdf:RDF>
 </metadata>
 <defs>
  <style type="text/css">*{stroke-linejoin: round; stroke-linecap: butt}</style>
 </defs>
 <g id="figure_1">
  <g id="patch_1">
   <path d="M 0 720 
L 720 720 
L 720 0 
L 0 0 
L 0 720 
z
" style="fill: none"/>
  </g>
  <g id="axes_1">
   <g id="PathCollection_1">
    <defs>
     <path id="m739dbdc1d7" d="M -1.787245 1.787347 
C -0.805666 2.768926 0.358104 3.33993 1.336095 3.440878 
C 2.099053 3.51977 2.762096 3.321329 3.21834 2.865083 
C 3.674588 2.408837 3.87294 1.745883 3.794134 0.982838 
C 3.693102 0.004934 3.122095 -1.158836 2.140517 -2.140415 
C 1.158793 -3.122139 -0.004832 -3.692999 -0.982882 -3.794178 
C -1.745926 -3.872983 -2.40888 -3.674629 -2.865126 -3.218383 
C -3.321372 -2.762137 -3.519813 -2.099097 -3.440921 -1.336138 
C -3.339828 -0.358002 -2.768969 0.805623 -1.787245 1.787347 
L -1.787245 1.787347 
z
M -1.038248 1.038349 
C -1.82322 0.253377 -2.306613 -0.662832 -2.387452 -1.445029 
C -2.429934 -1.855828 -2.361914 -2.223908 -2.116282 -2.469539 
C -1.870652 -2.71517 -1.502658 -2.783104 -1.091858 -2.740622 
C -0.309662 -2.659784 0.606547 -2.176391 1.39152 -1.391418 
C 2.176492 -0.606445 2.659743 0.309618 2.74058 1.091815 
C 2.783064 1.502614 2.715127 1.870609 2.469497 2.116239 
C 2.223866 2.361871 1.855784 2.429891 1.444985 2.387409 
C 0.662789 2.30657 -0.25342 1.823177 -1.038248 1.038349 
L -1.038248 1.038349 
z
"/>
    </defs>
    <g clip-path="url(#p584573625b)">
     <use xlink:href="#m739dbdc1d7" x="162.185947" y="93.885812" style="fill: #ffe5af"/>
    </g>
   </g>
   <g id="PathCollection_2">
    <defs>
     <path id="mfd581c6269" d="M 1.821188 -0.616457 
C 2.170619 -0.227261 2.570047 -0.416518 2.708903 -0.617236 
C 2.911882 -0.815805 2.819904 -1.241296 2.469886 -1.575133 
C 2.078889 -2.0377 1.624339 -2.48788 1.129356 -2.810332 
C 0.644672 -2.978066 0.318702 -2.654473 0.353514 -2.227665 
C 0.39 -1.886279 0.840943 -1.711398 1.078891 -1.445314 
C 1.352191 -1.1916 1.604004 -0.911167 1.821188 -0.616458 
L 1.821188 -0.616457 
z
M -1.064774 -2.647702 
C -0.622057 -2.588091 -0.296426 -2.91381 -0.439177 -3.39291 
C -0.627448 -3.796054 -1.041693 -3.752162 -1.309296 -3.795086 
C -2.137879 -3.853799 -2.851424 -3.61281 -3.259153 -3.087156 
C -3.42333 -2.920563 -3.313839 -2.363141 -2.893579 -2.282024 
C -2.433434 -2.197611 -2.321376 -2.622596 -1.937427 -2.665826 
C -1.682127 -2.728485 -1.380246 -2.71496 -1.064774 -2.647702 
L -1.064774 -2.647702 
z
M -2.635807 -1.015657 
C -2.773464 -1.519391 -3.393955 -1.522404 -3.537459 -1.304852 
C -3.801783 -1.125286 -3.734092 -0.697255 -3.570735 -0.291822 
C -3.383199 0.222335 -3.112422 0.767059 -2.717555 1.254511 
C -2.306525 1.561387 -1.971474 1.328764 -1.848359 1.087458 
C -1.666273 0.857561 -1.919813 0.466775 -2.153347 0.138971 
C -2.38356 -0.24576 -2.549671 -0.641434 -2.635807 -1.015657 
z
M -0.571181 1.852932 
C -1.002265 1.601177 -1.312386 1.850054 -1.416213 2.124213 
C -1.580551 2.39508 -1.235471 2.829332 -0.852477 2.990995 
C -0.2752 3.340263 0.347641 3.627801 0.887794 3.677003 
C 1.23665 3.632343 1.516182 3.334484 1.339498 2.881488 
C 1.104796 2.490937 0.713455 2.587481 0.398936 2.404124 
C 0.072886 2.268025 -0.256617 2.080219 -0.571181 1.852932 
L -0.571181 1.852932 
z
M 2.377217 2.350204 
C 2.200089 2.49592 2.095863 2.968577 2.529392 3.224774 
C 3.019105 3.418424 3.234348 3.063539 3.413951 2.804686 
C 3.748238 2.267698 3.872983 1.527328 3.646315 0.684026 
C 3.364062 0.185461 2.845506 0.342313 2.710174 0.561836 
C 2.464295 0.789229 2.70663 1.290782 2.657828 1.63693 
C 2.641601 1.925685 2.547432 2.174426 2.377217 2.350204 
L 2.377217 2.350204 
z
"/>
    </defs>
    <g clip-path="url(#p584573625b)">
     <use xlink:href="#mfd581c6269" x="371.413669" y="273.304578" style="fill: #ffe5af"/>
    </g>
   </g>
   <g id="PathCollection_3">
    <g clip-path="url(#p584573625b)">
     <use xlink:href="#mfd581c6269" x="396.099799" y="285.984443" style="fill: #ffe5af"/>
    </g>
   </g>
   <g id="PathCollection_4">
    <g clip-path="url(#p584573625b)">
     <use xlink:href="#mfd581c6269" x="526.208836" y="337.158334" style="fill: #ffe5af"/>
    </g>
   </g>
   <g id="PathCollection_5">
    <g clip-path="url(#p584573625b)">
     <use xlink:href="#m739dbdc1d7" x="220.138591" y="386.490298" style="fill: #ffe5af"/>
    </g>
   </g>
   <g id="PathCollection_6">
    <g clip-path="url(#p584573625b)">
     <use xlink:href="#mfd581c6269" x="391.753188" y="272.163056" style="fill: #ffe5af"/>
    </g>
   </g>
   <g id="PathCollection_7">
    <g clip-path="url(#p584573625b)">
     <use xlink:href="#mfd581c6269" x="463.814034" y="308.973416" style="fill: #ffe5af"/>
    </g>
   </g>
   <g id="PathCollection_8">
    <g clip-path="url(#p584573625b)">
     <use xlink:href="#mfd581c6269" x="581.184048" y="285.885523" style="fill: #ffe5af"/>
    </g>
   </g>
   <g id="PathCollection_9">
    <g clip-path="url(#p584573625b)">
     <use xlink:href="#mfd581c6269" x="307.05193" y="252.395314" style="fill: #ffe5af"/>
    </g>
   </g>
   <g id="PathCollection_10">
    <g clip-path="url(#p584573625b)">
     <use xlink:href="#mfd581c6269" x="206.856053" y="237.746793" style="fill: #ffe5af"/>
    </g>
   </g>
   <g id="PathCollection_11">
    <g clip-path="url(#p584573625b)">
     <use xlink:href="#m739dbdc1d7" x="199.091046" y="150.299368" style="fill: #ffe5af"/>
    </g>
   </g>
   <g id="PathCollection_12">
    <g clip-path="url(#p584573625b)">
     <use xlink:href="#m739dbdc1d7" x="275.650826" y="536.445291" style="fill: #ffe5af"/>
    </g>
   </g>
   <g id="PathCollection_13">
    <g clip-path="url(#p584573625b)">
     <use xlink:href="#mfd581c6269" x="467.85947" y="310.219027" style="fill: #ffe5af"/>
    </g>
   </g>
   <g id="PathCollection_14">
    <g clip-path="url(#p584573625b)">
     <use xlink:href="#mfd581c6269" x="416.452299" y="281.220908" style="fill: #ffe5af"/>
    </g>
   </g>
   <g id="PathCollection_15">
    <g clip-path="url(#p584573625b)">
     <use xlink:href="#mfd581c6269" x="318.021486" y="291.698139" style="fill: #ffe5af"/>
    </g>
   </g>
   <g id="PathCollection_16">
    <g clip-path="url(#p584573625b)">
     <use xlink:href="#mfd581c6269" x="533.062746" y="342.039382" style="fill: #ffe5af"/>
    </g>
   </g>
   <g id="PathCollection_17">
    <g clip-path="url(#p584573625b)">
     <use xlink:href="#mfd581c6269" x="676.038969" y="432.672908" style="fill: #ffe5af"/>
    </g>
   </g>
   <g id="PathCollection_18">
    <g clip-path="url(#p584573625b)">
     <use xlink:href="#mfd581c6269" x="724.459736" y="461.244907" style="fill: #ffe5af"/>
    </g>
   </g>
   <g id="PathCollection_19">
    <g clip-path="url(#p584573625b)">
     <use xlink:href="#mfd581c6269" x="615.805093" y="369.603486" style="fill: #ffe5af"/>
    </g>
   </g>
   <g id="PathCollection_20">
    <g clip-path="url(#p584573625b)">
     <use xlink:href="#mfd581c6269" x="4.503526" y="279.396288" style="fill: #ffe5af"/>
    </g>
   </g>
   <g id="PathCollection_21">
    <g clip-path="url(#p584573625b)">
     <use xlink:href="#m739dbdc1d7" x="204.009655" y="415.468981" style="fill: #ffe5af"/>
    </g>
   </g>
   <g id="PathCollection_22">
    <g clip-path="url(#p584573625b)">
     <use xlink:href="#mfd581c6269" x="661.503005" y="558.993409" style="fill: #ffe5af"/>
    </g>
   </g>
   <g id="PathCollection_23">
    <defs>
     <path id="m3b188fb73c" d="M -2.631891 2.974555 
C -2.537591 2.890884 -2.574839 2.771856 -2.584815 2.73183 
C -2.617373 2.598662 -2.598931 2.678579 -2.717486 2.199507 
C -2.748709 2.073643 -2.913182 1.408218 -2.653451 0.579434 
C -2.444062 -0.089538 -2.008535 -0.480658 -1.9406 -0.543802 
C -1.330435 -1.109748 -1.331946 -1.109882 -0.724263 -1.676995 
C -0.012496 -2.341653 1.126836 -1.611845 0.839498 -0.685884 
C 0.828431 -0.650569 0.765011 -0.446547 0.598367 -0.288971 
C -0.25964 0.521848 -0.262638 0.51572 -0.298271 0.555084 
C -0.455943 0.730286 -0.45868 0.820794 -0.481016 0.958145 
C -0.508115 1.127213 -0.356504 1.488418 0.063414 1.501453 
C 0.202747 1.505361 0.345066 1.441097 0.454369 1.354982 
C 0.573627 1.261057 1.265667 0.591616 1.336151 0.525296 
C 2.656728 -0.719987 1.8124 -2.975926 -0.006508 -3.008334 
C -0.600622 -3.018933 -1.110731 -2.768129 -1.446484 -2.44015 
C -2.088816 -1.812033 -2.752736 -1.181112 -2.988219 -0.864994 
C -3.872983 0.32195 -3.626484 1.480585 -3.583056 1.685621 
C -3.432718 2.391191 -3.179409 2.73102 -3.079973 2.850675 
C -3.004722 2.940949 -2.957648 3.000541 -2.878807 3.024016 
C -2.749246 3.06241 -2.703215 3.037775 -2.631891 2.974555 
L -2.631891 2.974555 
z
M 2.631762 -2.974557 
C 2.538025 -2.891025 2.574905 -2.771652 2.584686 -2.731833 
C 2.617244 -2.598664 2.598802 -2.678581 2.717357 -2.199509 
C 2.748579 -2.073644 2.913246 -1.408014 2.653518 -0.57923 
C 2.443933 0.089536 2.0086 0.480863 1.940471 0.5438 
C 1.330306 1.109746 1.332184 1.109535 0.724328 1.677199 
C 0.012367 2.341651 -1.126964 1.611843 -0.839433 0.686088 
C -0.82856 0.650567 -0.76514 0.446545 -0.598129 0.288623 
C 0.259706 -0.521643 0.263071 -0.515861 0.298142 -0.555086 
C 0.456375 -0.730428 0.458746 -0.82059 0.480887 -0.958147 
C 0.507986 -1.127216 0.356936 -1.488559 -0.063543 -1.501455 
C -0.202508 -1.50571 -0.345195 -1.441099 -0.454498 -1.354984 
C -0.573756 -1.261059 -1.265796 -0.591617 -1.336279 -0.525298 
C -2.656858 0.719985 -1.812528 2.975924 0.006379 3.008332 
C 0.600687 3.019137 1.110796 2.768333 1.446355 2.440148 
C 2.089055 1.811685 2.752802 1.181316 2.988653 0.864853 
C 3.872853 -0.321952 3.626548 -1.48038 3.58312 -1.685417 
C 3.432956 -2.391539 3.179473 -2.730816 3.079846 -2.850677 
C 3.004595 -2.940951 2.957518 -3.000543 2.878678 -3.024018 
C 2.749484 -3.062758 2.703086 -3.037777 2.631762 -2.974557 
L 2.631762 -2.974557 
z
"/>
    </defs>
    <g clip-path="url(#p584573625b)">
     <use xlink:href="#m3b188fb73c" x="434.459659" y="188.54997" style="fill: #ffe5af"/>
    </g>
   </g>
   <g id="PathCollection_24">
    <g clip-path="url(#p584573625b)">
     <use xlink:href="#m739dbdc1d7" x="119.692211" y="564.156624" style="fill: #ffe5af"/>
    </g>
   </g>
   <g id="PathCollection_25">
    <g clip-path="url(#p584573625b)">
     <use xlink:href="#mfd581c6269" x="439.035293" y="219.877943" style="fill: #ffe5af"/>
    </g>
   </g>
   <g id="PathCollection_26">
    <g clip-path="url(#p584573625b)">
     <use xlink:href="#mfd581c6269" x="189.769994" y="249.451342" style="fill: #ffe5af"/>
    </g>
   </g>
   <g id="PathCollection_27">
    <g clip-path="url(#p584573625b)">
     <use xlink:href="#mfd581c6269" x="539.714985" y="353.959737" style="fill: #ffe5af"/>
    </g>
   </g>
   <g id="PathCollection_28">
    <g clip-path="url(#p584573625b)">
     <use xlink:href="#mfd581c6269" x="344.074414" y="238.623939" style="fill: #ffe5af"/>
    </g>
   </g>
   <g id="PathCollection_29">
    <g clip-path="url(#p584573625b)">
     <use xlink:href="#mfd581c6269" x="506.051212" y="391.244017" style="fill: #ffe5af"/>
    </g>
   </g>
   <g id="PathCollection_30">
    <g clip-path="url(#p584573625b)">
     <use xlink:href="#mfd581c6269" x="415.307004" y="280.349513" style="fill: #ffe5af"/>
    </g>
   </g>
   <g id="PathCollection_31">
    <g clip-path="url(#p584573625b)">
     <use xlink:href="#mfd581c6269" x="453.304155" y="250.851344" style="fill: #ffe5af"/>
    </g>
   </g>
   <g id="PathCollection_32">
    <g clip-path="url(#p584573625b)">
     <use xlink:href="#mfd581c6269" x="571.308322" y="368.302327" style="fill: #ffe5af"/>
    </g>
   </g>
   <g id="PathCollection_33">
    <defs>
     <path id="m470da5a95e" d="M 0.214563 2.40672 
C 0.400557 2.220726 0.400617 1.918664 0.214632 1.732663 
C 0.028698 1.546728 -0.273364 1.546788 -0.459358 1.732767 
L -1.267222 2.540631 
C -1.453217 2.726626 -1.45317 3.028581 -1.267235 3.214515 
C -1.081234 3.400516 -0.779279 3.400564 -0.593284 3.214585 
L 0.214563 2.40672 
z
M 0.928111 -0.300708 
C 1.114105 -0.486702 1.114058 -0.788657 0.928041 -0.974658 
C 0.74204 -1.16066 0.440085 -1.160707 0.25409 -0.974728 
L -1.320507 0.59987 
C -1.506395 0.785757 -1.506455 1.087819 -1.320437 1.27382 
C -1.134436 1.459822 -0.832375 1.459762 -0.646487 1.27389 
L 0.928111 -0.300708 
z
M -1.723888 2.351291 
C -1.537894 2.165297 -1.537834 1.863235 -1.723819 1.677234 
C -1.90982 1.491233 -2.211881 1.491292 -2.397876 1.677303 
L -3.364813 2.64424 
C -3.550808 2.830235 -3.550867 3.132297 -3.364883 3.318298 
C -3.178882 3.504299 -2.87682 3.50424 -2.690825 3.318228 
L -1.723888 2.351291 
z
M -1.401881 0.019804 
C -1.215886 -0.166191 -1.215934 -0.468146 -1.401868 -0.65408 
C -1.587869 -0.840081 -1.889824 -0.840129 -2.075819 -0.65415 
L -3.594757 0.864804 
C -3.780752 1.050799 -3.780705 1.352753 -3.594688 1.538755 
C -3.408753 1.724689 -3.106799 1.724737 -2.920804 1.538742 
L -1.401881 0.019804 
z
M -0.632109 -0.966103 
C -0.384597 -0.965999 -0.161835 -1.176776 -0.161835 -1.436378 
C -0.161835 -1.695979 -0.372569 -1.906714 -0.632171 -1.906714 
C -0.891773 -1.906714 -1.102446 -1.696041 -1.102446 -1.436439 
C -1.102446 -1.176838 -0.891711 -0.966103 -0.632109 -0.966103 
z
M 0.967018 1.449863 
C 1.214638 1.449846 1.4374 1.239084 1.4374 0.979482 
C 1.4374 0.71988 1.226665 0.509145 0.967064 0.509145 
C 0.707462 0.509145 0.496682 0.719925 0.496682 0.979527 
C 0.496682 1.239128 0.707417 1.449863 0.967018 1.449863 
L 0.967018 1.449863 
z
M 1.8842 -1.007994 
C 2.040557 -0.796084 2.339542 -0.750933 2.551413 -0.907204 
C 2.763392 -1.063582 2.808525 -1.362449 2.652275 -1.574467 
C 2.477851 -1.81085 2.279277 -2.042544 2.05781 -2.264012 
C 1.836273 -2.485547 1.604647 -2.684056 1.368264 -2.858476 
C 1.156246 -3.014727 0.857379 -2.969595 0.701001 -2.757616 
C 0.54473 -2.545744 0.589881 -2.24676 0.801792 -2.090402 
C 1.0011 -1.943441 1.196323 -1.775995 1.383058 -1.58926 
C 1.569792 -1.402526 1.737238 -1.207303 1.8842 -1.007994 
L 1.8842 -1.007994 
z
M -0.614748 -2.76681 
C -0.357056 -2.712099 -0.10352 -2.876703 -0.048732 -3.134292 
C 0.005989 -3.391947 -0.158637 -3.645458 -0.416221 -3.700276 
C -1.228853 -3.872983 -1.950734 -3.717773 -2.427376 -3.26113 
C -2.617585 -3.078922 -2.623956 -2.776549 -2.441908 -2.586595 
C -2.259459 -2.396241 -1.957203 -2.389695 -1.767061 -2.57197 
C -1.496451 -2.831247 -1.076098 -2.86493 -0.614748 -2.76681 
z
M 2.365767 1.560858 
C 2.183493 1.751 2.190037 2.053257 2.380125 2.235438 
C 2.570278 2.417687 2.872584 2.411249 3.054793 2.221041 
C 3.511504 1.744465 3.666847 1.022717 3.494071 0.210018 
C 3.439256 -0.047566 3.185745 -0.212192 2.928088 -0.157471 
C 2.6705 -0.102683 2.505895 0.150854 2.560606 0.408545 
C 2.658729 0.869895 2.625044 1.290248 2.365767 1.560858 
L 2.365767 1.560858 
z
"/>
    </defs>
    <g clip-path="url(#p584573625b)">
     <use xlink:href="#m470da5a95e" x="657.102381" y="401.622829" style="fill: #ffe5af"/>
    </g>
   </g>
   <g id="PathCollection_34">
    <g clip-path="url(#p584573625b)">
     <use xlink:href="#mfd581c6269" x="284.822957" y="260.507929" style="fill: #ffe5af"/>
    </g>
   </g>
   <g id="PathCollection_35">
    <g clip-path="url(#p584573625b)">
     <use xlink:href="#mfd581c6269" x="70.144073" y="325.308495" style="fill: #ffe5af"/>
    </g>
   </g>
   <g id="PathCollection_36">
    <defs>
     <path id="me4e1c41985" d="M 1.442559 2.011476 
C 1.690014 1.764021 1.690093 1.362145 1.442651 1.114681 
C 1.195276 0.867305 0.7934 0.867384 0.545945 1.114819 
L -0.528873 2.189637 
C -0.776329 2.437092 -0.776266 2.838826 -0.52889 3.086202 
C -0.281426 3.333666 0.120308 3.333729 0.367763 3.086294 
L 1.442559 2.011476 
z
M 2.391896 -1.590605 
C 2.63935 -1.83806 2.639285 -2.239794 2.391896 -2.487258 
C 2.144432 -2.734723 1.742698 -2.734786 1.495243 -2.487351 
L -0.599671 -0.392437 
C -0.846984 -0.145124 -0.847063 0.256752 -0.599578 0.504216 
C -0.352114 0.751681 0.049762 0.751601 0.297075 0.504309 
L 2.391896 -1.590605 
z
M -1.136441 1.937731 
C -0.888986 1.690275 -0.888907 1.288399 -1.136349 1.040935 
C -1.383813 0.793471 -1.785689 0.79355 -2.033145 1.041028 
L -3.3196 2.327483 
C -3.567056 2.574938 -3.567135 2.976814 -3.319693 3.224278 
C -3.072229 3.471743 -2.670352 3.471664 -2.422897 3.224186 
L -1.136441 1.937731 
z
M -0.708029 -1.164183 
C -0.460574 -1.411638 -0.460636 -1.813372 -0.708012 -2.060747 
C -0.955476 -2.308211 -1.35721 -2.308275 -1.604666 -2.06084 
L -3.625528 -0.039957 
C -3.872983 0.207499 -3.87292 0.609232 -3.625436 0.856697 
C -3.37806 1.104072 -2.976326 1.104135 -2.728871 0.85668 
L -0.708029 -1.164183 
z
M 0.316109 -2.475876 
C 0.64541 -2.475737 0.941783 -2.756164 0.941783 -3.10155 
C 0.941783 -3.446935 0.661413 -3.727306 0.316027 -3.727306 
C -0.029359 -3.727306 -0.309648 -3.447018 -0.309648 -3.101632 
C -0.309648 -2.756246 -0.029277 -2.475875 0.316109 -2.475876 
z
M 2.443661 0.738431 
C 2.773101 0.738408 3.069476 0.458001 3.069476 0.112615 
C 3.069476 -0.23277 2.789105 -0.513141 2.443717 -0.513141 
C 2.098333 -0.513141 1.817903 -0.232711 1.817903 0.112675 
C 1.817903 0.458061 2.098273 0.738432 2.443661 0.738431 
z
"/>
    </defs>
    <g clip-path="url(#p584573625b)">
     <use xlink:href="#me4e1c41985" x="716.868533" y="321.389214" style="fill: #ffe5af"/>
    </g>
   </g>
   <g id="PathCollection_37">
    <g clip-path="url(#p584573625b)">
     <use xlink:href="#me4e1c41985" x="290.640952" y="241.068076" style="fill: #ffe5af"/>
    </g>
   </g>
   <g id="PathCollection_38">
    <g clip-path="url(#p584573625b)">
     <use xlink:href="#mfd581c6269" x="712.983378" y="403.340909" style="fill: #ffe5af"/>
    </g>
   </g>
   <g id="PathCollection_39">
    <g clip-path="url(#p584573625b)">
     <use xlink:href="#m470da5a95e" x="630.731664" y="408.95626" style="fill: #ffe5af"/>
    </g>
   </g>
   <g id="PathCollection_40">
    <g clip-path="url(#p584573625b)">
     <use xlink:href="#m3b188fb73c" x="387.549426" y="213.84927" style="fill: #ffe5af"/>
    </g>
   </g>
   <g id="PathCollection_41">
    <g clip-path="url(#p584573625b)">
     <use xlink:href="#mfd581c6269" x="536.843219" y="508.38908" style="fill: #ffe5af"/>
    </g>
   </g>
   <g id="PathCollection_42">
    <g clip-path="url(#p584573625b)">
     <use xlink:href="#m470da5a95e" x="720.216938" y="321.185946" style="fill: #ffe5af"/>
    </g>
   </g>
   <g id="PathCollection_43">
    <g clip-path="url(#p584573625b)">
     <use xlink:href="#mfd581c6269" x="537.637725" y="243.535604" style="fill: #ffe5af"/>
    </g>
   </g>
  </g>
 </g>
 <defs>
  <clipPath id="p584573625b">
   <path d="M 720 0 
L 720 0 
L 720 720 
L 0 720 
L 0 0 
z
"/>
  </clipPath>
 </defs>
</svg>
